<svg xmlns="http://www.w3.org/2000/svg" width="181" height="213" fill="none" viewBox="0 0 181 213">
    <path fill="url(#a)" fill-rule="evenodd" d="M46.553 84.735l.219 78.593L144.26 212V86.442c-2.661 14.167-23.466 25.23-48.738 25.23-26.28 0-47.728-11.94-48.969-26.937z" clip-rule="evenodd" opacity=".3"/>
    <path fill="url(#b)" d="M95.421 49.927L180.89 0v160.016l-85.469 48.672V49.927z" opacity=".6"/>
    <path fill="url(#c)" fill-rule="evenodd" d="M.02 58.457H0v41.898l21.855 12.294V58.457h-.02c-.352 3.29-5.088 5.898-10.907 5.898-5.82 0-10.556-2.608-10.907-5.898z" clip-rule="evenodd" opacity=".6"/>
    <defs>
        <linearGradient id="a" x1="101.142" x2="144.254" y1="203.023" y2="142.808" gradientUnits="userSpaceOnUse">
            <stop offset=".23" stop-color="#fff" stop-opacity="0"/>
            <stop offset="1" stop-color="#FFFCFF" stop-opacity=".74"/>
        </linearGradient>
        <linearGradient id="b" x1="134.188" x2="89.738" y1="150.248" y2="94.799" gradientUnits="userSpaceOnUse">
            <stop stop-color="#fff" stop-opacity="0"/>
            <stop offset="1" stop-color="#FFFCFF" stop-opacity=".74"/>
        </linearGradient>
        <linearGradient id="c" x1="11.942" x2="23.381" y1="111.263" y2="56.041" gradientUnits="userSpaceOnUse">
            <stop offset=".11" stop-color="#fff" stop-opacity="0"/>
            <stop offset="1" stop-color="#FFFCFF" stop-opacity=".74"/>
        </linearGradient>
    </defs>
</svg>
