<svg xmlns="http://www.w3.org/2000/svg" width="149" height="173" fill="none" viewBox="0 0 149 173">
    <path fill="url(#a)" d="M149 129.417l-74.496 43.029L0 129.417l74.504-43.021L149 129.417z"/>
    <path fill="url(#b)" d="M149 129.417l-74.496 43.029V86.05L149 43.02v86.396z"/>
    <path fill="url(#c)" d="M74.504 172.446L0 129.417V43.021L74.504 86.05v86.396z"/>
    <path fill="url(#d)" d="M149 43.021L74.504 86.05 0 43.02 74.504 0 149 43.021z"/>
    <path fill="url(#e)" d="M149 43.021L74.504 86.05 0 43.02 74.504 0 149 43.021z"/>
    <path fill="#fff" fill-rule="evenodd" d="M37.299 84.832l-5.089-2.94-19.82 41.615 3.856 1.975 6.652-13.946 21.356 12.331 6.638 21.623 6.083 3.755L37.3 84.832zm-3.662 3.82l8.815 29.37-17.76-10.249 8.945-19.121z" clip-rule="evenodd"/>
    <path fill="#fff" d="M112.754 45.666l-4.599 2.624-41.803-24.13-8.23 4.8c-10.863 6.277-8.13 11.077-3.23 13.91 10.43 6.025 21.622-.288 24.21-1.795l3.661-2.111 5.838 20.649-5.715 3.294-4.591-17.14c-8.88 4.628-20.304 4.195-27.562 0-14.897-8.605.245-17.492 3.23-19.215l12.85-7.416 45.941 26.53z"/>
    <defs>
        <linearGradient id="a" x1="101.751" x2="131.571" y1="188.181" y2="98.772" gradientUnits="userSpaceOnUse">
            <stop stop-color="#F5ECB0"/>
            <stop offset="1" stop-color="#F0CB88"/>
        </linearGradient>
        <linearGradient id="b" x1="154.028" x2="84.68" y1="92.585" y2="61.502" gradientUnits="userSpaceOnUse">
            <stop stop-color="#F5ECB0" stop-opacity=".8"/>
            <stop offset="1" stop-color="#F0CB88"/>
        </linearGradient>
        <linearGradient id="c" x1="45.472" x2="8.011" y1="50.261" y2="71.751" gradientUnits="userSpaceOnUse">
            <stop stop-color="#EEC76B"/>
            <stop offset="1" stop-color="#EEC76B" stop-opacity=".6"/>
        </linearGradient>
        <linearGradient id="d" x1="14505.3" x2="13602.7" y1="7352.38" y2="-2636.19" gradientUnits="userSpaceOnUse">
            <stop stop-color="#F5ECB0"/>
            <stop offset="1" stop-color="#F0CB88"/>
        </linearGradient>
        <linearGradient id="e" x1="77.036" x2="88.422" y1="81.697" y2="42.85" gradientUnits="userSpaceOnUse">
            <stop stop-color="#fff" stop-opacity=".3"/>
            <stop offset="1" stop-color="#fff" stop-opacity=".01"/>
        </linearGradient>
    </defs>
</svg>
