<svg xmlns="http://www.w3.org/2000/svg" width="201" height="332" viewBox="0 0 201 332">
    <defs>
        <linearGradient id="a" x1="86%" x2="0%" y1="49.992%" y2="49.992%">
            <stop offset="0%" stop-color="#008ABD"/>
            <stop offset="100%" stop-color="#3E76AD"/>
        </linearGradient>
        <linearGradient id="b" x1="0%" x2="86%" y1="25.264%" y2="72.725%">
            <stop offset="0%" stop-color="#4480BC" stop-opacity=".8"/>
            <stop offset="100%" stop-color="#4488BD" stop-opacity=".9"/>
        </linearGradient>
        <linearGradient id="c" x1="1.623%" x2="85.45%" y1="49.992%" y2="49.992%">
            <stop offset="0%" stop-color="#4480BC" stop-opacity=".8"/>
            <stop offset="100%" stop-color="#4480BC"/>
        </linearGradient>
        <linearGradient id="d" x1="86%" x2="0%" y1="49.992%" y2="49.992%">
            <stop offset="0%" stop-color="#00BCE8"/>
            <stop offset="100%" stop-color="#4480BC"/>
        </linearGradient>
    </defs>
    <g fill="none" fill-rule="evenodd" opacity=".9">
        <path fill="url(#a)" d="M119.28 309.86l25.138 20.805h.002l-1.465-143.892-25.139-20.807zM85.503 135.56L59.54 114.958l57.652-6.003 25.96 20.602z" transform="translate(0 .335)"/>
        <path fill="url(#a)" d="M141.886 130.492l-25.553-20.912-1.05-104.512 25.552 20.912z" transform="translate(0 .335)"/>
        <path fill="url(#a)" d="M141.166 26.605L115.282 5.92 171.742 0l25.885 20.685z" transform="translate(0 .335)"/>
        <path fill="url(#b)" d="M0 18.6l25.841 20.674 56.504-5.93-25.84-20.675z" transform="translate(0 .335)"/>
        <path fill="url(#c)" d="M1.688 177.96l26.182 20.946-1.686-160.221L0 17.737z" transform="translate(0 .335)"/>
        <path fill="url(#d)" d="M140.14 26.253l1.072 101.925-57.846 6.092-1.071-101.926-56.958 5.997 1.68 159.867 114.803-12.087 1.518 144.544h.012l56.81-5.982-3.198-304.412z" transform="translate(0 .335)"/>
    </g>
</svg>
