<svg xmlns="http://www.w3.org/2000/svg" xmlns:xlink="http://www.w3.org/1999/xlink" width="630" height="492" viewBox="0 0 630 492">
    <defs>
        <path id="a" d="M.156 124.823l229.85 55.468L429.32 57.568 214.74.568z"/>
        <path id="b" d="M0 109.694l200.957 52.973L415.166 39.412 228.36.314z"/>
        <path id="c" d="M412.899 53.562L227.602 165.16c-16.346-6.317-57.54-22.522-91.596-29.48C101.951 128.726.156 121.92.156 121.92L211.256.266S288.238 9.52 327.8 23.868c46.94 17.023 54.418 16.775 85.099 29.694z"/>
        <linearGradient id="e" x1="95.755%" x2="19.333%" y1="35.839%" y2="38.252%">
            <stop offset="0%" stop-color="#FFF"/>
            <stop offset="100%" stop-color="#F2F2F2"/>
        </linearGradient>
        <path id="d" d="M403.694 49.53L218.126 157.126s-51.588-22.11-94.754-29.555c-53.77-9.276-123.216 0-123.216 0L221.224.279s46.022 4.845 94.465 19.378c38.859 11.657 68.194 21.615 88.005 29.873z"/>
        <path id="f" d="M234.14.688s36.077 4.027 77.909 15.793c51.673 14.533 80.316 25.583 80.316 25.583L172.155 169.28S125.7 144.925 84.64 132.29C43.579 119.658.413 113.341.413 113.341L234.14.688z"/>
        <path id="g" d="M212.547.546c-4.211 0 54.964-1.818 106.817 12.897 59.746 16.955 70.359 25.32 70.359 25.32l-220.378 127s-42.077-30.455-73.661-42.036C41.603 103.897.929 102.67.929 102.67L212.547.546z"/>
        <linearGradient id="h" x1="86%" x2="0%" y1="49.992%" y2="49.992%">
            <stop offset="0%" stop-color="#008ABD"/>
            <stop offset="100%" stop-color="#3E76AD"/>
        </linearGradient>
        <linearGradient id="i" x1="0%" x2="86%" y1="25.264%" y2="72.725%">
            <stop offset="0%" stop-color="#4480BC" stop-opacity=".8"/>
            <stop offset="100%" stop-color="#4488BD" stop-opacity=".9"/>
        </linearGradient>
        <linearGradient id="j" x1="86%" x2="0%" y1="49.992%" y2="49.992%">
            <stop offset="0%" stop-color="#00BCE8"/>
            <stop offset="100%" stop-color="#4480BC"/>
        </linearGradient>
        <linearGradient id="k" x1="1.623%" x2="85.45%" y1="49.992%" y2="49.992%">
            <stop offset="0%" stop-color="#4480BC" stop-opacity=".8"/>
            <stop offset="100%" stop-color="#4480BC"/>
        </linearGradient>
        <filter id="l" width="150.9%" height="465.2%" x="-25.5%" y="-182.6%" filterUnits="objectBoundingBox">
            <feGaussianBlur in="SourceGraphic" stdDeviation="14"/>
        </filter>
        <filter id="m" width="194.4%" height="465.2%" x="-47.2%" y="-182.6%" filterUnits="objectBoundingBox">
            <feGaussianBlur in="SourceGraphic" stdDeviation="14"/>
        </filter>
        <filter id="n" width="152.2%" height="333.3%" x="-26.1%" y="-116.7%" filterUnits="objectBoundingBox">
            <feGaussianBlur in="SourceGraphic" stdDeviation="14"/>
        </filter>
    </defs>
    <g fill="none" fill-rule="evenodd">
        <use fill="#B09586" transform="translate(200.679 311.432)" xlink:href="#a"/>
        <use fill="#B09586" transform="translate(.834 273.588)" xlink:href="#b"/>
        <use fill="#D8D8D8" transform="translate(200.679 313.928)" xlink:href="#c"/>
        <use fill="url(#e)" transform="translate(200.679 308.277)" xlink:href="#d"/>
        <use fill="#D8D8D8" transform="translate(28.847 266.783)" xlink:href="#f"/>
        <use fill="#F7F7F7" transform="translate(31.49 270.084)" xlink:href="#g"/>
        <g>
            <g opacity=".9">
                <path fill="url(#h)" d="M59.541 118.267l17.972-12.846 60.572 1.091-17.97 12.845z" transform="translate(340.106)"/>
                <path fill="url(#i)" d="M15.802.926L0 11.86l59.095 1.076L74.894 2z" transform="translate(340.106)"/>
                <path fill="url(#h)" d="M57.008 13.875L75.345 1.534l1.932 105.483-18.338 12.34z" transform="translate(340.106)"/>
                <path fill="url(#j)" d="M176.638 14.77l4.52 250.283-58.47-1.026-1.542-85.356L2.98 176.598 0 11.67l58.627 1.03 1.9 105.15 59.54 1.046-1.9-105.153z" transform="translate(340.106)"/>
                <path fill="url(#h)" d="M176.09 15.088l4.57 249.965 18.234-12.286-4.57-249.966z" transform="translate(340.106)"/>
                <path fill="url(#h)" d="M117.816 14.396l18.222-12.862 59.055 1.072-18.222 12.864z" transform="translate(340.106)"/>
            </g>
            <g opacity=".9">
                <path fill="url(#h)" d="M50.674 222.328l16.878-19.621 57.865 1.915-16.877 19.622z" transform="translate(229.891 39.541)"/>
                <path fill="url(#h)" d="M48.14 68.422l17.036-20.28L68.41 202.7l-17.038 20.278z" transform="translate(229.891 39.541)"/>
                <path fill="url(#j)" d="M104.802 70.267l-55.65-1.976 3.22 153.012 55.65 3.244-3.22-154.28zM0 19.004l145.545 5.053 5.209 249.597L5.21 268.602 0 19.004z" transform="translate(229.891 39.541)"/>
                <path fill="url(#h)" d="M0 20.276L16.802 0l144.087 5.06-16.802 20.278z" transform="translate(229.891 39.541)"/>
                <path fill="url(#h)" d="M144.42 24.046L160.896 3.8l5.06 249.608-16.478 20.245z" transform="translate(229.891 39.541)"/>
            </g>
            <g opacity=".9">
                <path fill="url(#h)" d="M119.28 309.86l25.138 20.805h.002l-1.465-143.892-25.139-20.807zM85.503 135.56L59.54 114.958l57.652-6.003 25.96 20.602z" transform="translate(50 5.335)"/>
                <path fill="url(#h)" d="M141.886 130.492l-25.553-20.912-1.05-104.512 25.552 20.912z" transform="translate(50 5.335)"/>
                <path fill="url(#h)" d="M141.166 26.605L115.282 5.92 171.742 0l25.885 20.685z" transform="translate(50 5.335)"/>
                <path fill="url(#i)" d="M0 18.6l25.841 20.674 56.504-5.93-25.84-20.675z" transform="translate(50 5.335)"/>
                <path fill="url(#k)" d="M1.688 177.96l26.182 20.946-1.686-160.221L0 17.737z" transform="translate(50 5.335)"/>
                <path fill="url(#j)" d="M140.14 26.253l1.072 101.925-57.846 6.092-1.071-101.926-56.958 5.997 1.68 159.867 114.803-12.087 1.518 144.544h.012l56.81-5.982-3.198-304.412z" transform="translate(50 5.335)"/>
            </g>
        </g>
        <ellipse cx="224.5" cy="369.5" fill="#527FB3" filter="url(#l)" opacity=".24" rx="82.5" ry="11.5"/>
        <ellipse cx="470.5" cy="357.5" fill="#527FB3" filter="url(#m)" opacity=".24" rx="44.5" ry="11.5"/>
        <ellipse cx="353.5" cy="349" fill="#527FB3" filter="url(#n)" opacity=".24" rx="80.5" ry="18"/>
    </g>
</svg>
