<?xml version="1.0" encoding="UTF-8"?>
<svg width="48px" height="32px" viewBox="0 0 48 32" version="1.1" xmlns="http://www.w3.org/2000/svg" xmlns:xlink="http://www.w3.org/1999/xlink">
    <!-- Generator: Sketch 49.2 (51160) - http://www.bohemiancoding.com/sketch -->
    <title>palm-coursor</title>
    <desc>Created with Sketch.</desc>
    <defs></defs>
    <g id="Page-1" stroke="none" stroke-width="1" fill="none" fill-rule="evenodd">
        <g id="Ui-kit" transform="translate(-763.000000, -1444.000000)">
            <g id="5" transform="translate(754.000000, 1442.000000)">
                <g id="plan">
                    <g id="palm-coursor" transform="translate(8.000000, 0.000000)">
                        <g id="hand-arrows-coursor-copy" transform="translate(2.830189, 27.692308)" stroke="#28282B">
                            <g id="arrow-copy-2" transform="translate(27.358491, 0.000000)" stroke-width="2">
                                <polyline id="Rectangle-5" transform="translate(14.460312, 3.192702) rotate(-90.000000) translate(-14.460312, -3.192702) " points="17.4541154 0.198898831 17.4541154 6.18650463 11.4665096 6.18650463"></polyline>
                                <path d="M0,0.923076923 C5.66037736,6.46153846 11.3956274,6.40559441 17.2057502,0.755244755" id="Path-2"></path>
                            </g>
                            <g id="arrow-copy-5" stroke-width="2">
                                <polyline id="Rectangle-5" transform="translate(3.139558, 3.192702) scale(-1, 1) rotate(-90.000000) translate(-3.139558, -3.192702) " points="6.13336067 0.198898831 6.13336067 6.18650463 0.145754877 6.18650463"></polyline>
                                <path d="M0.943396226,0.923076923 C6.60377358,6.46153846 12.3390237,6.40559441 18.1491465,0.755244755" id="Path-2"></path>
                            </g>
                        </g>
                        <g id="noun_Hand_73720" transform="translate(15.647365, 1.846154)">
                            <path d="M2.35115396,13.1286825 C1.98927942,13.1286825 1.64759643,13.2674923 1.38982637,13.5199669 C1.13100741,13.7729548 0.98756873,14.1093311 0.985733135,14.4662338 C0.984159767,14.8231365 1.12471394,15.1577167 1.38169731,15.4094216 C1.41001792,15.4394415 2.76337627,16.917342 4.69835616,18.8111585 L5.02063428,19.127265 C6.8168956,20.8943311 8.23528647,22.2903826 11.1051089,22.2903826 C13.9741447,22.2903826 14.870702,20.9923446 15.6720705,19.4238714 C16.3258048,18.1445638 16.4094555,17.0230529 16.5927528,14.5657868 C16.6195001,14.2088841 16.6480829,13.8245273 16.6808614,13.4086113 C16.9320757,10.2129081 17.1832901,7.13497506 17.2040061,6.88147408 C17.1964015,6.46324877 16.8463272,6.12558956 16.4173223,6.12558956 C15.9835973,6.12558956 15.6306385,6.47094617 15.6306385,6.89532939 C15.6306385,6.90371101 15.455208,8.66949417 15.1043471,12.1926789 C15.0838933,12.3992258 14.8940403,12.547529 14.6876669,12.539575 C14.4757867,12.5264894 14.3129432,12.3512453 14.3197611,12.1436721 L14.581989,3.80482398 C14.5817268,3.2506113 14.1112899,2.79030688 13.5328151,2.79030688 C12.9391311,2.79030688 12.4183464,3.2698548 12.4183464,3.81662666 L12.090037,10.1864803 C12.0792857,10.3917443 11.8962506,10.6159951 11.6830593,10.6159951 C11.4696058,10.6159951 11.2747704,10.3114348 11.2747704,10.1028353 L11.2747704,2.02056705 C11.2747704,1.43556478 10.8664815,0.99424728 10.3058382,0.99424728 C9.73627914,0.99424728 9.29704736,1.44505824 9.29704736,2.02056705 L9.07100688,10.9464701 C9.06550009,11.1545565 8.86410905,11.385735 8.68186063,11.385735 C8.49961222,11.385735 8.29507444,11.1576354 8.28746983,10.9505754 L8.02576635,3.73426449 C8.02550413,3.04072891 7.59413918,2.54989148 6.97580573,2.54989148 C6.35747227,2.54989148 5.92610732,3.01661039 5.92610732,3.69654724 L6.18413961,15.4869088 C6.18754857,15.6457318 6.09131092,15.7881336 5.94131654,15.8486865 C5.79184662,15.9097525 5.61903842,15.8733182 5.50706709,15.7588835 L3.30671254,13.5153485 C3.05444927,13.2680054 2.71329073,13.1286825 2.35115396,13.1286825 Z" id="Path" fill="#FFFFFF"></path>
                            <path d="M11.1061395,23.0601224 C7.90931881,23.0601224 6.31261294,21.4890834 4.46390604,19.6699316 L4.14320128,19.3553646 C2.19143881,17.4456401 0.824969066,15.9526014 0.811333213,15.9382329 C-0.0104891172,15.1348811 -0.00655569823,13.7988693 0.834671499,12.9760175 C1.24112479,12.578062 1.78000318,12.3591993 2.35218453,12.3591993 C2.9246281,12.3591993 3.46350649,12.5783186 3.86995978,12.9760175 L5.37698369,14.5124182 L5.1404541,3.69654724 C5.1404541,2.59120085 5.93002239,1.76398711 6.97709852,1.76398711 C7.62821047,1.76398711 8.17993803,2.0839423 8.50378952,2.58991795 L8.51873651,2.01081701 C8.51873651,1.01349078 9.2959801,0.22450745 10.3068688,0.22450745 C11.2994015,0.22450745 12.0624848,1.01349078 12.0624848,2.02056705 L12.0624848,2.65765505 C12.3247127,2.27175882 12.9496018,2.02056705 13.5191609,2.02056705 C14.5310985,2.02056705 15.3620988,2.82648465 15.3620988,3.81662666 L15.3030975,5.80691727 C15.587877,5.52852804 15.9827923,5.35610631 16.4162551,5.35610631 C17.2839673,5.35610631 17.9904093,6.04656294 17.9904093,6.89558597 C17.9896226,6.92611899 17.7276569,10.1331117 17.465429,13.4681378 C17.4329127,13.8830276 17.4048544,14.2658448 17.3781071,14.6217212 C17.1869429,17.1834154 17.0998833,18.3526502 16.3766586,19.7684583 C15.525729,21.4339187 14.4175538,23.0601224 11.1061395,23.0601224 Z M2.35218453,13.1286825 C1.99030998,13.1286825 1.64862699,13.2674923 1.39085694,13.5199669 C1.13203797,13.7729548 0.988599294,14.1093311 0.986763698,14.4662338 C0.985190331,14.8231365 1.1257445,15.1577167 1.38272787,15.4094216 C1.41104849,15.4394415 2.76440683,16.917342 4.69938672,18.8111585 L5.02166485,19.127265 C6.81792616,20.8943311 8.23631703,22.2903826 11.1061395,22.2903826 C13.9751753,22.2903826 14.8717326,20.9923446 15.6731011,19.4238714 C16.3268353,18.1445638 16.410486,17.0230529 16.5937834,14.5657868 C16.6205306,14.2088841 16.6491135,13.8245273 16.681892,13.4086113 C16.9331063,10.2129081 17.1843207,7.13497506 17.2050367,6.88147408 C17.1974321,6.46324877 16.8473578,6.12558956 16.4183529,6.12558956 C15.9846279,6.12558956 15.6316691,6.47094617 15.6316691,6.89532939 C15.6316691,6.90371101 15.4562386,8.66949417 15.1053776,12.1926789 C15.0849239,12.3992258 14.8950708,12.547529 14.6886975,12.539575 C14.4768173,12.5264894 14.3139738,12.3512453 14.3207917,12.1436721 L14.5830196,3.80482398 C14.5827574,3.2506113 14.1123205,2.79030688 13.5338457,2.79030688 C12.9401616,2.79030688 12.419377,3.2698548 12.419377,3.81662666 L12.0910676,10.1864803 C12.0803163,10.3917443 11.8972812,10.6159951 11.6840898,10.6159951 C11.4706363,10.6159951 11.275801,10.3114348 11.275801,10.1028353 L11.275801,2.02056705 C11.275801,1.43556478 10.8675121,0.99424728 10.3068688,0.99424728 C9.7373097,0.99424728 9.29807792,1.44505824 9.29807792,2.02056705 L9.07203744,10.9464701 C9.06653066,11.1545565 8.86513961,11.385735 8.6828912,11.385735 C8.50064279,11.385735 8.296105,11.1576354 8.28850039,10.9505754 L8.02679692,3.73426449 C8.02653469,3.04072891 7.59516975,2.54989148 6.97683629,2.54989148 C6.35850283,2.54989148 5.92713789,3.01661039 5.92713789,3.69654724 L6.18517017,15.4869088 C6.18857913,15.6457318 6.09234148,15.7881336 5.94234711,15.8486865 C5.79287719,15.9097525 5.62006898,15.8733182 5.50809766,15.7588835 L3.3077431,13.5153485 C3.05547983,13.2680054 2.7143213,13.1286825 2.35218453,13.1286825 Z" id="Shape" fill="#000000" fill-rule="nonzero"></path>
                        </g>
                    </g>
                </g>
            </g>
        </g>
    </g>
</svg>