<?xml version="1.0" encoding="UTF-8"?>
<svg width="48px" height="30px" viewBox="0 0 48 30" version="1.1" xmlns="http://www.w3.org/2000/svg" xmlns:xlink="http://www.w3.org/1999/xlink">
    <!-- Generator: Sketch 49.2 (51160) - http://www.bohemiancoding.com/sketch -->
    <title>hand-coursor-push</title>
    <desc>Created with Sketch.</desc>
    <defs></defs>
    <g id="Page-1" stroke="none" stroke-width="1" fill="none" fill-rule="evenodd">
        <g id="Ui-kit" transform="translate(-763.000000, -1356.000000)">
            <g id="plan" transform="translate(754.000000, 1352.000000)">
                <g id="hand-coursor-move" transform="translate(10.000000, 0.000000)">
                    <g id="hand-arrows-coursor">
                        <g id="hand-arrows-coursor-copy" transform="translate(0.830189, 0.923077)">
                            <g id="arrow-copy-2" transform="translate(27.358491, 26.769231)" stroke="#28282B" stroke-width="2">
                                <polyline id="Rectangle-5" transform="translate(14.460312, 3.192702) rotate(-90.000000) translate(-14.460312, -3.192702) " points="17.4541154 0.198898831 17.4541154 6.18650463 11.4665096 6.18650463"></polyline>
                                <path d="M0,0.923076923 C5.66037736,6.46153846 11.3956274,6.40559441 17.2057502,0.755244755" id="Path-2"></path>
                            </g>
                            <g id="arrow-copy-5" transform="translate(0.000000, 26.769231)" stroke="#28282B" stroke-width="2">
                                <polyline id="Rectangle-5" transform="translate(3.139558, 3.192702) scale(-1, 1) rotate(-90.000000) translate(-3.139558, -3.192702) " points="6.13336067 0.198898831 6.13336067 6.18650463 0.145754877 6.18650463"></polyline>
                                <path d="M0.943396226,0.923076923 C6.60377358,6.46153846 12.3390237,6.40559441 18.1491465,0.755244755" id="Path-2"></path>
                            </g>
                            <g id="Page-1" transform="translate(15.094340, 0.000000)"></g>
                        </g>
                        <g id="noun_Fist_73725" transform="translate(14.037736, 3.692308)">
                            <path d="M15.2978759,3.42669908 C15.1492265,3.42669908 14.8777263,3.4673676 14.5997764,3.55322336 C14.5088669,2.47174206 13.5825721,1.61920946 12.456952,1.61920946 C11.9409788,1.61920946 11.467082,1.79845218 11.0963798,2.09638672 C10.7935527,1.29115009 10.0030081,0.715464644 9.07855609,0.715464644 C8.07793664,0.715464644 7.02479849,1.27397894 6.71337181,2.32262417 C6.37583934,2.06535815 5.95108283,1.92045773 5.46858647,1.92045773 C4.24437863,1.92045773 3.3558605,2.87059477 3.3558605,4.18102475 L3.3592389,5.3833066 C3.09818103,5.51224086 2.69523053,5.75625196 2.19123528,6.20541313 C0.523843323,7.69207335 -0.0219211841,11.2871702 1.86107386,14.0694993 C3.78952369,16.9196091 6.70630789,18.4894139 10.0742615,18.4894139 C13.9529672,18.4894139 15.2505783,16.5801023 16.2475123,14.6243986 C17.2063625,12.7434044 17.217419,5.5399557 17.217419,5.23448996 C17.217419,4.25452933 16.3384218,3.42669908 15.2978759,3.42669908 Z" id="Path" fill="#FFFFFF"></path>
                            <path d="M15.2978759,3.42669908 C15.1492265,3.42669908 14.8777263,3.4673676 14.5997764,3.55322336 C14.5088669,2.47174206 13.5825721,1.61920946 12.456952,1.61920946 C11.9409788,1.61920946 11.467082,1.79845218 11.0963798,2.09638672 C10.7935527,1.29115009 10.0030081,0.715464644 9.07855609,0.715464644 C8.07793664,0.715464644 7.02479849,1.27397894 6.71337181,2.32262417 C6.37583934,2.06535815 5.95108283,1.92045773 5.46858647,1.92045773 C4.24437863,1.92045773 3.3558605,2.87059477 3.3558605,4.18102475 L3.3592389,5.3833066 C3.09818103,5.51224086 2.69523053,5.75625196 2.19123528,6.20541313 C0.523843323,7.69207335 -0.0219211841,11.2871702 1.86107386,14.0694993 C3.78952369,16.9196091 6.70630789,18.4894139 10.0742615,18.4894139 C13.9529672,18.4894139 15.2505783,16.5801023 16.2475123,14.6243986 C17.2063625,12.7434044 17.217419,5.5399557 17.217419,5.23448996 C17.217419,4.25452933 16.3384218,3.42669908 15.2978759,3.42669908 Z M15.4194981,14.2198221 C14.4809183,16.0613528 13.4271659,17.5853678 10.0665833,17.5853678 C7.01742744,17.5853678 4.3650795,16.1592585 2.61292052,13.5697284 C1.48852893,11.9080429 0.962727668,8.47351137 2.75727016,6.8741843 C2.96150956,6.69223034 3.38718744,6.44490551 3.38718744,6.44490551 L3.37766651,9.60198739 C3.37766651,9.97854773 3.49898164,10.2044839 3.7747816,10.2044839 C4.05058155,10.2044839 4.16483276,9.99150141 4.16483276,9.60198739 L4.16483276,4.17981976 C4.16483276,3.50502363 4.58958927,2.82420254 5.41238224,2.82420254 C6.26343089,2.82420254 6.59359232,3.55442835 6.59359232,4.17981976 C6.59359232,4.42925333 6.81410943,4.63169217 7.06841051,4.63169217 C7.32271158,4.63169217 7.54292157,4.42925333 7.54292157,4.17981976 L7.54292157,2.97482668 C7.54292157,1.98010489 8.46123101,1.61920946 9.07855609,1.61920946 C9.75607804,1.61920946 10.3070637,2.15964886 10.3070637,2.82420254 L10.3070637,4.48106803 C10.3070637,4.7305016 10.513453,4.93294044 10.7677541,4.93294044 C11.0220551,4.93294044 11.2284444,4.7305016 11.2284444,4.48106803 L11.2284444,3.72794735 C11.2284444,3.06339367 11.7794301,2.52295427 12.456952,2.52295427 C13.134474,2.52295427 13.6854596,3.06339367 13.6854596,3.72794735 L13.6854596,5.68606112 C13.6854596,5.93549468 13.8918489,6.13793352 14.14615,6.13793352 C14.4004511,6.13793352 14.6068404,5.93549468 14.6068404,5.68606112 L14.6068404,4.52444778 C14.7708461,4.44039951 15.0881082,4.3304439 15.2969545,4.3304439 C15.8285912,4.3304439 16.2938884,4.75279397 16.2938884,5.23418871 C16.2938884,7.2573721 16.1351038,12.8160052 15.4194981,14.2198221 Z" id="Shape" fill="#000000" fill-rule="nonzero"></path>
                        </g>
                    </g>
                </g>
            </g>
        </g>
    </g>
</svg>