<?xml version="1.0" encoding="UTF-8"?>
<svg width="62px" height="62px" viewBox="0 0 62 62" version="1.1" xmlns="http://www.w3.org/2000/svg" xmlns:xlink="http://www.w3.org/1999/xlink">
    <!-- Generator: Sketch 49.2 (51160) - http://www.bohemiancoding.com/sketch -->
    <title>hand-coursor-move</title>
    <desc>Created with Sketch.</desc>
    <defs></defs>
    <g id="Page-1" stroke="none" stroke-width="1" fill="none" fill-rule="evenodd">
        <g id="Ui-kit" transform="translate(-852.000000, -1341.000000)">
            <g id="plan-copy" transform="translate(850.000000, 1339.000000)">
                <g id="scheme">
                    <g id="hand-coursor-move" transform="translate(0.298828, 0.564453)">
                        <g id="hand-arrows-coursor-copy-2" transform="translate(2.746479, 2.746479)">
                            <polyline id="Rectangle-5-Copy-12" stroke="#28282B" stroke-width="2" transform="translate(42.112676, 29.295775) rotate(-45.000000) translate(-42.112676, -29.295775) " points="44.8591549 26.5492958 44.8591549 32.0422535 39.3661972 32.0422535"></polyline>
                            <polyline id="Rectangle-5-Copy-14" stroke="#28282B" stroke-width="2" transform="translate(30.211268, 42.112676) scale(-1, 1) rotate(45.000000) translate(-30.211268, -42.112676) " points="32.9577465 39.3661972 32.9577465 44.8591549 27.4647887 44.8591549"></polyline>
                            <circle id="Oval-4" stroke="#28282B" stroke-width="2" cx="29.7535211" cy="29.7535211" r="29.7535211"></circle>
                            <polyline id="Rectangle-5-Copy-15" stroke="#28282B" stroke-width="2" transform="translate(30.211268, 16.478873) scale(-1, -1) rotate(45.000000) translate(-30.211268, -16.478873) " points="32.9577465 13.7323944 32.9577465 19.2253521 27.4647887 19.2253521"></polyline>
                            <g id="noun_Fist_73725" transform="translate(22.381394, 21.971831)">
                                <path d="M12.5308768,2.80689584 C12.4091143,2.80689584 12.1867217,2.84020845 11.9590459,2.91053507 C11.8845796,2.02466641 11.1258282,1.3263354 10.2038043,1.3263354 C9.7811576,1.3263354 9.39297675,1.47315764 9.08932523,1.71720335 C8.84127187,1.05761368 8.19371677,0.586055175 7.43647478,0.586055175 C6.6168421,0.586055175 5.75419001,1.04354835 5.49909255,1.90252017 C5.22261117,1.69178707 4.87468238,1.57309547 4.47945741,1.57309547 C3.47667783,1.57309547 2.74887016,2.35137674 2.74887016,3.42478306 L2.75163749,4.40960252 C2.5377984,4.51521583 2.20773146,4.71509149 1.79489621,5.08301076 C0.429093308,6.30077172 -0.017956196,9.24560644 1.52445264,11.5246825 C3.10409464,13.8592795 5.49330631,15.1451463 8.25208226,15.1451463 C11.4292281,15.1451463 12.4921342,13.5811809 13.308748,11.9792145 C14.0941664,10.4384446 14.1032231,4.53791776 14.1032231,4.28770304 C14.1032231,3.48499252 13.3832143,2.80689584 12.5308768,2.80689584 Z" id="Path" fill="#FFFFFF"></path>
                                <path d="M12.5308768,2.80689584 C12.4091143,2.80689584 12.1867217,2.84020845 11.9590459,2.91053507 C11.8845796,2.02466641 11.1258282,1.3263354 10.2038043,1.3263354 C9.7811576,1.3263354 9.39297675,1.47315764 9.08932523,1.71720335 C8.84127187,1.05761368 8.19371677,0.586055175 7.43647478,0.586055175 C6.6168421,0.586055175 5.75419001,1.04354835 5.49909255,1.90252017 C5.22261117,1.69178707 4.87468238,1.57309547 4.47945741,1.57309547 C3.47667783,1.57309547 2.74887016,2.35137674 2.74887016,3.42478306 L2.75163749,4.40960252 C2.5377984,4.51521583 2.20773146,4.71509149 1.79489621,5.08301076 C0.429093308,6.30077172 -0.017956196,9.24560644 1.52445264,11.5246825 C3.10409464,13.8592795 5.49330631,15.1451463 8.25208226,15.1451463 C11.4292281,15.1451463 12.4921342,13.5811809 13.308748,11.9792145 C14.0941664,10.4384446 14.1032231,4.53791776 14.1032231,4.28770304 C14.1032231,3.48499252 13.3832143,2.80689584 12.5308768,2.80689584 Z M12.6305007,11.6478158 C11.8616862,13.1562601 10.998531,14.4046193 8.24579288,14.4046193 C5.7481522,14.4046193 3.57554696,13.2364571 2.14030925,11.1153075 C1.21929167,9.75417896 0.788594569,6.94086735 2.25854969,5.63081812 C2.42584734,5.48177504 2.77453086,5.27918502 2.77453086,5.27918502 L2.76673202,7.86523059 C2.76673202,8.17368068 2.86610431,8.35875074 3.09201902,8.35875074 C3.31793374,8.35875074 3.41151979,8.18429137 3.41151979,7.86523059 L3.41151979,3.42379602 C3.41151979,2.87105346 3.75944859,2.31337569 4.43341911,2.31337569 C5.13053457,2.31337569 5.40097814,2.91152211 5.40097814,3.42379602 C5.40097814,3.62811336 5.58160928,3.79393613 5.78991372,3.79393613 C5.99821816,3.79393613 6.17859773,3.62811336 6.17859773,3.42379602 L6.17859773,2.43675573 C6.17859773,1.62195396 6.93080821,1.3263354 7.43647478,1.3263354 C7.99145014,1.3263354 8.44277642,1.76902297 8.44277642,2.31337569 L8.44277642,3.6705561 C8.44277642,3.87487344 8.6118351,4.04069621 8.82013954,4.04069621 C9.02844398,4.04069621 9.19750265,3.87487344 9.19750265,3.6705561 L9.19750265,3.05365591 C9.19750265,2.50930319 9.64882894,2.06661562 10.2038043,2.06661562 C10.7587796,2.06661562 11.2101059,2.50930319 11.2101059,3.05365591 L11.2101059,4.65759639 C11.2101059,4.86191373 11.3791646,5.0277365 11.587469,5.0277365 C11.7957735,5.0277365 11.9648322,4.86191373 11.9648322,4.65759639 L11.9648322,3.70608955 C12.0991734,3.63724349 12.3590508,3.54717606 12.5301221,3.54717606 C12.9655991,3.54717606 13.3467359,3.89313368 13.3467359,4.28745628 C13.3467359,5.94469694 13.2166714,10.4979138 12.6305007,11.6478158 Z" id="Shape" fill="#000000" fill-rule="nonzero"></path>
                            </g>
                            <polyline id="Rectangle-5-Copy-13" stroke="#28282B" stroke-width="2" transform="translate(17.394366, 29.295775) scale(-1, 1) rotate(-45.000000) translate(-17.394366, -29.295775) " points="20.1408451 26.5492958 20.1408451 32.0422535 14.6478873 32.0422535"></polyline>
                        </g>
                    </g>
                </g>
            </g>
        </g>
    </g>
</svg>