<svg xmlns="http://www.w3.org/2000/svg" xmlns:xlink="http://www.w3.org/1999/xlink" width="490" height="83" viewBox="0 0 490 83">
    <defs>
        <path id="a" d="M30.839.344l.003 17.308L.416 34.095.413 16.786z"/>
        <linearGradient id="b" x1="0%" y1="49.996%" y2="49.996%">
            <stop offset="0%" stop-color="#3FBCE7"/>
            <stop offset="86%" stop-color="#5B80BA"/>
        </linearGradient>
        <path id="d" d="M31.148.438l.003 17.309L.725 34.189.722 16.881z"/>
        <linearGradient id="e" x1="6984%" x2="17899%" y1="7904%" y2="7904%">
            <stop offset="0%" stop-color="#3FBCE7"/>
            <stop offset="86%" stop-color="#5B80BA"/>
        </linearGradient>
        <path id="g" d="M.685 6.607L22.717 18.82l-11.016 6.107 11.016 6.106 11.016-6.106 11.017-6.107L11.7.501z"/>
        <path id="i" d="M.685 6.394l22.032 12.212-11.016 6.106 11.016 6.106 11.016-6.106 11.017-6.106L11.7.29z"/>
        <linearGradient id="j" x1="12696.661%" x2="13817.601%" y1="14485%" y2="7417%">
            <stop offset="6%" stop-color="#D2C9C1"/>
            <stop offset="98%" stop-color="#A79486"/>
        </linearGradient>
        <path id="l" d="M24.039 13.931L.694 27.606V13.904L24.04.23z"/>
        <linearGradient id="m" x1="864464%" x2="874413%" y1="-226978%" y2="-226978%">
            <stop offset="6%" stop-color="#D2C9C1"/>
            <stop offset="98%" stop-color="#A79486"/>
        </linearGradient>
        <path id="o" d="M13.709 19.225L.786 13.065V.695l12.923 6.16z"/>
        <linearGradient id="p" x1="863490%" x2="867137%" y1="-229767%" y2="-229767%">
            <stop offset="6%" stop-color="#D2C9C1"/>
            <stop offset="98%" stop-color="#A79486"/>
        </linearGradient>
        <path id="r" d="M12.398 19.973L.725 13.34V.02L24.07 13.312z"/>
        <linearGradient id="s" x1="865178%" x2="869793%" y1="-235581%" y2="-235581%">
            <stop offset="6%" stop-color="#D2C9C1"/>
            <stop offset="98%" stop-color="#A79486"/>
        </linearGradient>
        <path id="u" d="M24.101 6.928L12.43 13.561.757 6.928 12.43.294z"/>
        <path id="w" d="M13.743 13.83L.821 20.463V7.143L13.743.507z"/>
        <linearGradient id="x" x1="856219%" x2="862528%" y1="-233045%" y2="-233045%">
            <stop offset="0%" stop-color="#666"/>
            <stop offset="100%" stop-color="#3F4044"/>
        </linearGradient>
        <path id="z" d="M13.761 20.463L.84 13.83V.508L13.76 7.142z"/>
        <path id="B" d="M24.101 6.643L12.43 13.277.757 6.643 12.43.009z"/>
        <path id="D" d="M.026.028H379.18v47.957H.026z"/>
    </defs>
    <g fill="none" fill-rule="evenodd">
        <g stroke="#A3A3A4" stroke-linecap="round" stroke-linejoin="round" stroke-width=".25">
            <path d="M86.153 46.922L41.289 71.934 7.64 53.156l44.864-25.011zM52.508 65.7L18.857 46.897M63.724 59.44L30.073 40.639M74.94 53.182L41.289 34.378M18.857 59.416l44.867-25.087M30.073 65.675L74.94 40.588"/>
        </g>
        <path fill="#232327" d="M39.388 78.625L0 54.868v4.192l39.388 23.757 50.33-30.315V48.31z"/>
        <path fill="#232327" d="M34.503 0L0 19.512l.005 35.7 34.502-19.513L34.503 0zM2.519 20.936L31.985 4.267l.003 30.009L2.523 50.943 2.52 20.936z"/>
        <g transform="translate(13.803)">
            <mask id="c" fill="#fff">
                <use xlink:href="#a"/>
            </mask>
            <path fill="url(#b)" d="M30.839.344l.003 17.308L.416 34.095.413 16.786z" mask="url(#c)" opacity=".4"/>
        </g>
        <g transform="translate(16.87 2.143)">
            <mask id="f" fill="#fff">
                <use xlink:href="#d"/>
            </mask>
            <path fill="url(#e)" d="M31.148.438l.003 17.309L.725 34.189.722 16.881z" mask="url(#f)" opacity=".7"/>
        </g>
        <g transform="translate(37.958 27.606)">
            <mask id="h" fill="#fff">
                <use xlink:href="#g"/>
            </mask>
            <path d="M.685 6.607L22.717 18.82l-11.016 6.107 11.016 6.106 11.016-6.106 11.017-6.107L11.7.501z" mask="url(#h)"/>
        </g>
        <g transform="translate(37.958 17.254)">
            <mask id="k" fill="#fff">
                <use xlink:href="#i"/>
            </mask>
            <path fill="url(#j)" d="M.685 6.394l22.032 12.212-11.016 6.106 11.016 6.106 11.016-6.106 11.017-6.106L11.7.29z" mask="url(#k)"/>
        </g>
        <g transform="translate(58.662 34.958)">
            <mask id="n" fill="#fff">
                <use xlink:href="#l"/>
            </mask>
            <path fill="url(#m)" d="M27.49 11.931L4.145 25.606V11.904L27.49-1.77z" mask="url(#n)"/>
        </g>
        <g transform="translate(50.76 41.408)">
            <mask id="q" fill="#fff">
                <use xlink:href="#o"/>
            </mask>
            <path fill="url(#p)" d="M12.709 19.225l-12.923-6.16V.695l12.923 6.16z" mask="url(#q)"/>
        </g>
        <g transform="translate(36.958 22.155)">
            <mask id="t" fill="#fff">
                <use xlink:href="#r"/>
            </mask>
            <path fill="url(#s)" d="M13.398 20.973L1.725 14.34V1.02L25.07 14.312z" mask="url(#t)"/>
        </g>
        <g transform="translate(17.254 55.211)">
            <mask id="v" fill="#fff">
                <use xlink:href="#u"/>
            </mask>
            <path d="M24.101 6.928L12.43 13.561.757 6.928 12.43.294z" mask="url(#v)"/>
        </g>
        <g transform="translate(27.606 48.31)">
            <mask id="y" fill="#fff">
                <use xlink:href="#w"/>
            </mask>
            <path fill="url(#x)" d="M13.743 13.83L.821 20.463V7.143L13.743.507z" mask="url(#y)"/>
        </g>
        <g transform="translate(17.254 48.31)">
            <mask id="A" fill="#fff">
                <use xlink:href="#z"/>
            </mask>
            <path fill="#28282B" d="M13.761 20.463L.84 13.83V.508L13.76 7.142z" mask="url(#A)"/>
        </g>
        <g transform="translate(17.254 42.408)">
            <mask id="C" fill="#fff">
                <use xlink:href="#B"/>
            </mask>
            <path fill="#28282B" d="M24.101 6.643L12.43 13.277.757 6.643 12.43.009z" mask="url(#C)"/>
        </g>
        <g transform="translate(110.423 13.803)">
            <mask id="E" fill="#fff">
                <use xlink:href="#D"/>
            </mask>
            <path fill="#232327" d="M253.095 23.233h4.372V.43h-4.372v22.804zm-13.72-4.098h3.541c2.01 0 3.414-1.078 3.414-2.897 0-1.849-1.404-2.928-3.414-2.928h-3.542v5.825zm0-18.706v8.783h3.509c5.84 0 7.818 3.605 7.818 7.026 0 4.16-3.223 6.995-7.818 6.995h-7.881V.43h4.371zM287.157 4.528h-4.962V.429h16.503l-2.207 4.099h-4.962v18.705h-4.372zM277.743 17.732a8.244 8.244 0 0 1-5.413 2.002c-4.479 0-8.11-3.506-8.11-7.831 0-4.326 3.631-7.832 8.11-7.832 2.079 0 3.973.756 5.409 1.998l2.123-3.548A12.519 12.519 0 0 0 272.33.028c-6.79 0-12.295 5.316-12.295 11.875 0 6.557 5.504 11.873 12.295 11.873 2.84 0 5.451-.931 7.533-2.493l-2.12-3.551zM308.563 13.249l-2.44-6.657-2.92 6.657h5.36zM304.591.429h3.51l9.004 22.804h-4.818l-2.213-5.886h-8.68l-2.637 5.886h-4.818L304.591.43zM370.64 13.249l-2.44-6.657-2.921 6.657h5.36zM366.667.429h3.51l9.003 22.804h-4.818l-2.213-5.886h-8.679l-2.637 5.886h-4.819L366.668.43zM336.827 23.227h4.372V.423h-4.372zM350.114.423h5.233l-8.902 11.217 8.902 11.587h-5.233L341.79 11.64zM226.035 19.625h-4.482v-6.033h4.482c1.725 0 3.124 1.35 3.124 3.016s-1.399 3.017-3.124 3.017zm-2.223-15.617c1.711 0 3.098 1.34 3.098 2.992 0 1.593-1.29 2.892-2.915 2.983h-2.442V4.008h2.26zm5.542 6.802A6.388 6.388 0 0 0 230.617 7c0-3.629-3.047-6.571-6.805-6.571h-6.236v22.805h8.459c3.789 0 6.86-2.966 6.86-6.626 0-2.496-1.43-4.669-3.54-5.798zM327.612 19.625h-4.482v-6.033h4.482c1.725 0 3.123 1.35 3.123 3.016s-1.398 3.017-3.123 3.017zm-2.223-15.617c1.71 0 3.097 1.34 3.097 2.992 0 1.593-1.29 2.892-2.915 2.983h-2.441V4.008h2.259zm5.542 6.802A6.388 6.388 0 0 0 332.193 7c0-3.629-3.047-6.571-6.804-6.571h-6.237v22.805h8.46c3.788 0 6.86-2.966 6.86-6.626 0-2.496-1.43-4.669-3.541-5.798zM5.78 45.156H4.17l1.82-3.9L.025 30.2h1.758l5.042 9.438L11.18 30.2h1.61zM24.276 45.156h-1.549v-6.002h-3.662c-1.15 0-2.699-.121-3.787-.97-1.297-1.01-1.381-2.364-1.381-3.537v-4.446h1.548v4.446c0 .708.063 1.8.921 2.486.774.627 2.155.667 2.7.667h3.661v-7.599h1.549v14.955zM26.77 30.202h8.495v1.354h-6.947v5.396h6.717v1.354h-6.717v5.496h6.947v1.354H26.77zM39.207 43.802h3.578c2.7 0 3.347-1.88 3.347-3.031 0-1.152-.648-3.032-3.347-3.032h-3.578v6.063zm6.863-13.6v1.354h-6.863v4.83h3.557c4.75 0 4.917 3.637 4.917 4.385 0 2.607-2.008 4.385-4.917 4.385h-5.106V30.202h8.412zM49.408 30.202h1.548v6.588h8.098v-6.588h1.548v14.954h-1.548v-7.012h-8.098v7.012h-1.548zM77.401 37.598c0-3.718-2.908-6.305-6.633-6.305-3.787 0-6.675 2.708-6.675 6.427 0 3.758 2.95 6.345 6.675 6.345 3.767 0 6.633-2.728 6.633-6.467m1.549 0c0 4.487-3.6 7.82-8.203 7.82-4.562 0-8.202-3.213-8.202-7.698 0-4.487 3.598-7.781 8.202-7.781 4.625 0 8.203 3.213 8.203 7.66M80.912 30.202h7.931v1.354h-6.382v13.6h-1.549zM103.325 37.598c0-3.718-2.909-6.305-6.633-6.305-3.788 0-6.675 2.708-6.675 6.427 0 3.758 2.95 6.345 6.675 6.345 3.766 0 6.633-2.728 6.633-6.467m1.548 0c0 4.487-3.599 7.82-8.202 7.82-4.562 0-8.203-3.213-8.203-7.698 0-4.487 3.6-7.781 8.203-7.781 4.624 0 8.202 3.213 8.202 7.66M126.384 37.598c0-3.718-2.909-6.305-6.633-6.305-3.788 0-6.675 2.708-6.675 6.427 0 3.758 2.95 6.345 6.675 6.345 3.766 0 6.633-2.728 6.633-6.467m1.548 0c0 4.487-3.599 7.82-8.202 7.82-4.562 0-8.203-3.213-8.203-7.698 0-4.487 3.6-7.781 8.203-7.781 4.624 0 8.202 3.213 8.202 7.66M131.444 43.802h3.578c2.7 0 3.348-1.88 3.348-3.031 0-1.152-.649-3.032-3.348-3.032h-3.578v6.063zm6.863-13.6v1.354h-6.863v4.83H135c4.75 0 4.917 3.637 4.917 4.385 0 2.607-2.008 4.385-4.917 4.385h-5.106V30.202h8.412zM155.854 37.598c0-3.718-2.908-6.305-6.633-6.305-3.787 0-6.675 2.708-6.675 6.427 0 3.758 2.95 6.345 6.675 6.345 3.767 0 6.633-2.728 6.633-6.467m1.549 0c0 4.487-3.6 7.82-8.203 7.82-4.561 0-8.202-3.213-8.202-7.698 0-4.487 3.599-7.781 8.202-7.781 4.625 0 8.203 3.213 8.203 7.66M160.914 37.8h3.37c2.76 0 3.766-1.556 3.766-3.112 0-1.597-1.005-3.132-3.767-3.132h-3.369V37.8zm-1.548-7.599h4.896c4.54 0 5.336 2.79 5.336 4.487 0 2.223-1.423 4.466-5.336 4.466h-3.348v6.002h-1.548V30.201zM175.421 45.156h-1.61l1.82-3.9-5.965-11.055h1.759l5.042 9.438 4.353-9.438h1.61zM192.933 43.802l-4.938-11.68-4.938 11.68h9.876zm1.675 0h1.402v4.183h-1.549v-2.829H181.53v2.83h-1.548v-4.184h1.402l5.775-13.6h1.674l5.776 13.6zM210.469 37.598c0-3.718-2.91-6.305-6.633-6.305-3.788 0-6.675 2.708-6.675 6.427 0 3.758 2.95 6.345 6.675 6.345 3.766 0 6.633-2.728 6.633-6.467m1.548 0c0 4.487-3.6 7.82-8.203 7.82-4.561 0-8.202-3.213-8.202-7.698 0-4.487 3.599-7.781 8.202-7.781 4.625 0 8.203 3.213 8.203 7.66M218.228 43.802c1.444 0 4.017-.242 4.017-2.85 0-2.727-2.49-2.99-4.017-2.99h-2.7v5.84h2.7zm-.377-7.194c1.297 0 3.578-.222 3.578-2.526 0-2.466-2.448-2.526-3.578-2.526h-2.323v5.052h2.323zm-3.87-6.406h3.87c1.61 0 5.126.181 5.126 3.94 0 1.617-1.046 2.506-1.861 2.991 1.924.546 2.699 2.244 2.699 3.8 0 1.172-.523 4.223-5.587 4.223h-4.248V30.202zM234.57 38.79l-2.971-6.85-3.014 6.85h5.985zm-3.83-8.588h1.716l6.633 14.954h-1.673l-2.24-5.011h-7.197l-2.24 5.011h-1.674l6.676-14.954zM240.491 30.202h1.549v6.588h8.098v-6.588h1.548v14.954h-1.548v-7.012h-8.098v7.012h-1.549zM255.938 30.202v12.832l9.207-12.832h1.633v14.954h-1.549V32.324l-9.207 12.832h-1.632V30.202zM278.993 45.156h-1.548v-13.6h-2.783c-3.662 0-4.603 1.798-4.603 3.395 0 3.395 3.724 3.435 4.603 3.435h1.234l-5.042 6.77h-1.925l4.227-5.578c-2.847-.14-4.646-2.122-4.646-4.486 0-4.85 5.147-4.89 6.152-4.89h4.331v14.954zM22.167.433v16.012L32.688.433h4.368V23.22h-4.368V7.207L22.167 23.22h-4.368V.433zM45.097 10.502h2.582c1.148 0 3.73-.185 3.73-2.987S48.828 4.53 47.68 4.53h-2.582v5.973zM40.729.433h6.6c7.556 0 8.449 4.958 8.449 7.113 0 2.864-1.595 7.052-8.45 7.052h-2.231v8.621h-4.368V.433zM60.777 4.529h-4.368V.434h12.316l1.97 4.095h-5.55v18.69h-4.368zM81.655 23.22h-4.782l2.774-5.79L70.592.434h5.292l6.218 12.133L87.554.433h4.782zM100.228 13.243L97.79 6.592l-2.918 6.65h5.356zM96.259.433h3.507l5.672 14.366-2.419 5.98-1.282-3.441h-8.672l-2.636 5.88h-4.814L96.26.435zM126.542 23.22h-4.814l-6.44-16.936-6.526 16.935h-4.814L113.375.433h3.826zM132.488 19.124h3.54c2.007 0 3.41-1.078 3.41-2.895 0-1.847-1.403-2.924-3.41-2.924h-3.54v5.819zm0-18.69v8.775h3.507c5.835 0 7.811 3.603 7.811 7.02 0 4.157-3.22 6.99-7.81 6.99h-7.876V.434h4.368zM145.585.433h4.368V9.58h8.608V.433h4.369V23.22h-4.369v-9.545h-8.608v9.545h-4.368zM179.152 13.243l-2.438-6.651-2.918 6.65h5.356zM175.183.433h3.508l8.996 22.786h-4.815l-2.21-5.881h-8.673l-2.635 5.88h-4.814L175.183.435zM8.839 19.613H4.36v-6.028H8.84c1.723 0 3.12 1.35 3.12 3.014 0 1.665-1.397 3.014-3.12 3.014zM6.617 4.01c1.71 0 3.096 1.338 3.096 2.99 0 1.59-1.29 2.888-2.913 2.98H4.36V4.01h2.257zm5.538 6.796a6.383 6.383 0 0 0 1.26-3.807c0-3.626-3.043-6.566-6.798-6.566H.387V23.22h8.452c3.785 0 6.854-2.964 6.854-6.62 0-2.493-1.428-4.665-3.538-5.793zM200.605.433h-2.913c-7.938 0-8.863 5.204-8.863 7.452 0 3.444 2.038 5.799 4.95 6.646l-4.902 8.688h4.368l6.689-11.858.08-.058H197.566c-3.475 0-4.368-1.724-4.368-3.387s.893-3.388 4.368-3.388h2.924V23.22h4.368V.433h-4.252z" mask="url(#E)"/>
        </g>
    </g>
</svg>
