<svg xmlns="http://www.w3.org/2000/svg" width="162" height="166" fill="none" viewBox="0 0 162 166">
    <path fill="url(#a)" d="M162 118.929l-81 46.777-81-46.777 81-46.778 81 46.778z"/>
    <path fill="url(#b)" d="M162 82.665l-81 46.777L0 82.665l81-46.777 81 46.777z"/>
    <path fill="url(#c)" d="M162 82.665l-81 46.777L0 82.665l81-46.777 81 46.777z"/>
    <path fill="url(#d)" d="M162 46.777L81 93.555 0 46.777 81 0l81 46.777z"/>
    <path fill="url(#e)" d="M162 46.777L81 93.555 0 46.777 81 0l81 46.777z"/>
    <defs>
        <linearGradient id="a" x1="122.873" x2="121.05" y1="163.338" y2="121.802" gradientUnits="userSpaceOnUse">
            <stop stop-color="#C9AACA"/>
            <stop offset="1" stop-color="#C09BBE"/>
        </linearGradient>
        <linearGradient id="b" x1="119.098" x2="114.988" y1="105.982" y2="72.353" gradientUnits="userSpaceOnUse">
            <stop stop-color="#C9AACA" stop-opacity=".8"/>
            <stop offset="1" stop-color="#C09BBE"/>
        </linearGradient>
        <linearGradient id="c" x1="120.429" x2="118.483" y1="128.002" y2="90.777" gradientUnits="userSpaceOnUse">
            <stop stop-color="#fff" stop-opacity=".3"/>
            <stop offset="1" stop-color="#fff" stop-opacity=".01"/>
        </linearGradient>
        <linearGradient id="d" x1="125.119" x2="130.534" y1="73.817" y2="14.769" gradientUnits="userSpaceOnUse">
            <stop stop-color="#C9AACA" stop-opacity=".8"/>
            <stop offset="1" stop-color="#C09BBE" stop-opacity=".6"/>
        </linearGradient>
        <linearGradient id="e" x1="10935.5" x2="10811.2" y1="11372.6" y2="6112.71" gradientUnits="userSpaceOnUse">
            <stop stop-color="#fff" stop-opacity=".3"/>
            <stop offset="1" stop-color="#fff" stop-opacity=".01"/>
        </linearGradient>
    </defs>
</svg>
