<svg xmlns="http://www.w3.org/2000/svg" xmlns:xlink="http://www.w3.org/1999/xlink" width="14" height="19" viewBox="0 0 14 19">
    <defs>
        <path id="a" d="M0 0h14v18.812H0z"/>
    </defs>
    <g fill="none" fill-rule="evenodd">
        <mask id="b" fill="#fff">
            <use xlink:href="#a"/>
        </mask>
        <path fill="#000" d="M9.625 7.437a.438.438 0 0 0-.438.438v7.875a.438.438 0 0 0 .876 0V7.875a.438.438 0 0 0-.438-.438zM7 7.437a.438.438 0 0 0-.438.438v7.875a.438.438 0 0 0 .875 0V7.875A.438.438 0 0 0 7 7.437zm-2.625 0a.438.438 0 0 0-.438.438v7.875a.438.438 0 0 0 .876 0V7.875a.438.438 0 0 0-.438-.438zm-2.188 10.5h9.626V5.687H2.187v12.25zM.875 4.812h12.25V2.625H.875v2.187zM5.469.875H8.53c.072 0 .219.117.219.219v.656h-3.5v-.656c0-.102.147-.219.219-.219zm0-.875a1.09 1.09 0 0 0-1.094 1.094v.656h-3.5A.883.883 0 0 0 0 2.625v2.187c0 .478.398.875.875.875h.438v12.25c0 .478.397.875.875.875h9.624a.883.883 0 0 0 .876-.875V5.687h.437A.883.883 0 0 0 14 4.812V2.625a.883.883 0 0 0-.875-.875h-3.5v-.656A1.09 1.09 0 0 0 8.531 0H5.47z" mask="url(#b)"/>
    </g>
</svg>
