<svg xmlns="http://www.w3.org/2000/svg" xmlns:xlink="http://www.w3.org/1999/xlink" width="64" height="73" viewBox="0 0 64 73">
    <defs>
        <path id="a" d="M9.716 17.144s-.763 7.929-2.594 14.436C5.305 38.038.273 46.3.273 46.3l30.038-16.916s3.729-5.584 5.621-11.013C38.221 11.808 39.755.228 39.755.228L9.716 17.144z"/>
        <linearGradient id="b" x1="100%" x2="21.289%" y1="50%" y2="50%">
            <stop offset="0%" stop-color="#666" stop-opacity=".6"/>
            <stop offset="100%" stop-color="#3F4044"/>
        </linearGradient>
        <path id="d" d="M17.85 17.127s-2.377 6.48-6.407 11.195C7.086 33.419.268 38.753.268 38.753l29.464-16.878s6.455-4.018 10.528-9.269C44.51 7.124 47.314.25 47.314.25L17.849 17.127z"/>
        <path id="e" d="M29.78.31L0 17.016s10.035-.902 16.618.779c6.631 1.693 13.714 5.772 13.714 5.772L60.113 6.862S49.165 2.408 42.257 1.069c-3.508-.68-7.411-.811-9.902-.811-1.566 0-2.574.052-2.574.052"/>
        <path id="g" d="M42.68.428c-6.597.859-13.31 4.351-13.31 4.351L0 21.45s8.038-3.15 14.643-4.327c6.11-1.089 12.93.102 12.93.102L56.942.554S53.376.06 48.887.06c-1.966 0-4.11.095-6.206.368"/>
    </defs>
    <g fill="none" fill-rule="evenodd" opacity=".2">
        <g stroke="#232327" stroke-width="2">
            <path d="M55.647 51.431l5.617 3.26-29.498 17.112L2.268 54.69l29.498-17.112M31.766 36.577L2.268 53.69V19.327L31.766 2.214z"/>
        </g>
        <g transform="translate(2 7.39)">
            <mask id="c" fill="#fff">
                <use xlink:href="#a"/>
            </mask>
            <path fill="url(#b)" d="M9.716 17.144s-.763 7.929-2.594 14.436C5.305 38.038.273 46.3.273 46.3l30.038-16.916s3.729-5.584 5.621-11.013C38.221 11.808 39.755.228 39.755.228L9.716 17.144z" mask="url(#c)"/>
        </g>
        <g transform="translate(2 36.5)">
            <mask id="f" fill="#fff">
                <use xlink:href="#e"/>
            </mask>
            <path fill="url(#b)" d="M29.78.31L0 17.016s10.035-.902 16.618.779c6.631 1.693 13.714 5.772 13.714 5.772L60.113 6.862S49.165 2.408 42.257 1.069c-3.508-.68-7.411-.811-9.902-.811-1.566 0-2.574.052-2.574.052" mask="url(#f)"/>
        </g>
    </g>
</svg>
