<svg xmlns="http://www.w3.org/2000/svg" width="80" height="54" viewBox="0 0 80 54">
    <defs>
        <linearGradient id="a" x1="0%" x2="86%" y1="49.992%" y2="49.992%">
            <stop offset="0%" stop-color="#00BCE8"/>
            <stop offset="100%" stop-color="#4480BC"/>
        </linearGradient>
    </defs>
    <g fill="none" fill-rule="evenodd">
        <path d="M58.616 42.207a8.496 8.496 0 0 1 7.686-4.859 8.496 8.496 0 0 1 7.686 4.859h3.284V26.778L65.778 15.5H57v26.707h1.616zM19.083 39.5a6.093 6.093 0 0 0-5.623 3.757 6.051 6.051 0 0 0 1.334 6.612 6.11 6.11 0 0 0 6.644 1.3 6.068 6.068 0 0 0 3.748-5.616c-.014-3.347-2.743-6.053-6.103-6.053z"/>
        <path d="M66.093 39.5a6.093 6.093 0 0 0-5.63 3.75 6.051 6.051 0 0 0 1.327 6.615 6.11 6.11 0 0 0 6.645 1.306 6.068 6.068 0 0 0 3.75-5.618c-.013-3.343-2.735-6.047-6.092-6.053z"/>
        <path fill="#232327" fill-rule="nonzero" d="M79.083 25.357L66.174 12.5h-7.167v2.412l6.16.062 11.494 11.252v15.429h-3.284a8.496 8.496 0 0 0-7.686-4.859 8.496 8.496 0 0 0-7.685 4.859H27.098a8.512 8.512 0 0 0-7.694-4.854 8.512 8.512 0 0 0-7.693 4.854H8.442v-8.64H6v11.042h4.972a8.197 8.197 0 0 0-.103 1.213c.114 4.612 3.9 8.292 8.533 8.292 4.632 0 8.418-3.68 8.532-8.292a8.197 8.197 0 0 0-.103-1.213h29.431a8.197 8.197 0 0 0-.103 1.213c.114 4.612 3.9 8.292 8.532 8.292s8.42-3.68 8.533-8.292a8.197 8.197 0 0 0-.103-1.213h4.967l-.005-18.7zM19.389 51.344c-3.361-.006-6.083-2.721-6.083-6.069 0-3.347 2.722-6.062 6.083-6.068 3.36-.006 6.091 2.7 6.103 6.048a6.067 6.067 0 0 1-1.784 4.305 6.115 6.115 0 0 1-4.32 1.784zm46.295 0c-3.362-.003-6.086-2.717-6.088-6.065-.002-3.348 2.72-6.066 6.08-6.072 3.362-.007 6.094 2.7 6.106 6.048a6.067 6.067 0 0 1-1.78 4.301 6.115 6.115 0 0 1-4.313 1.788h-.005z"/>
        <path fill="#000" fill-rule="nonzero" d="M52 41.5h4.663"/>
        <path fill="url(#a)" fill-rule="nonzero" d="M0 .5h56.126v33.012H0z"/>
    </g>
</svg>
