<svg xmlns="http://www.w3.org/2000/svg" width="176" height="315" fill="none" viewBox="0 0 176 315">
    <path fill="url(#a)" d="M175.747 118.864l-80.956 46.752-80.956-46.752 80.956-46.752 80.956 46.752z"/>
    <path fill="url(#b)" d="M175.747 82.62l-80.956 46.752L13.835 82.62l80.956-46.752 80.956 46.752z"/>
    <path fill="url(#c)" d="M175.747 82.62l-80.956 46.752L13.835 82.62l80.956-46.752 80.956 46.752z"/>
    <path fill="url(#d)" d="M175.747 46.752L94.791 93.504 13.835 46.752 94.791 0l80.956 46.752z"/>
    <path fill="url(#e)" d="M175.747 46.752L94.791 93.504 13.835 46.752 94.791 0l80.956 46.752z"/>
    <path fill="url(#f)" d="M94.835 129.252l80.912-46.632v147.5l-80.824 48.5-.088-149.368z" opacity=".6"/>
    <defs>
        <linearGradient id="a" x1="136.641" x2="134.819" y1="163.249" y2="121.736" gradientUnits="userSpaceOnUse">
            <stop stop-color="#C9AACA"/>
            <stop offset="1" stop-color="#C09BBE"/>
        </linearGradient>
        <linearGradient id="b" x1="132.868" x2="128.76" y1="105.924" y2="72.314" gradientUnits="userSpaceOnUse">
            <stop stop-color="#C9AACA" stop-opacity=".8"/>
            <stop offset="1" stop-color="#C09BBE"/>
        </linearGradient>
        <linearGradient id="c" x1="134.199" x2="132.253" y1="127.932" y2="90.728" gradientUnits="userSpaceOnUse">
            <stop stop-color="#fff" stop-opacity=".3"/>
            <stop offset="1" stop-color="#fff" stop-opacity=".01"/>
        </linearGradient>
        <linearGradient id="d" x1="138.886" x2="144.298" y1="73.776" y2="14.761" gradientUnits="userSpaceOnUse">
            <stop stop-color="#C9AACA" stop-opacity=".8"/>
            <stop offset="1" stop-color="#C09BBE" stop-opacity=".6"/>
        </linearGradient>
        <linearGradient id="e" x1="10943.4" x2="10819.2" y1="11366.4" y2="6109.37" gradientUnits="userSpaceOnUse">
            <stop stop-color="#fff" stop-opacity=".3"/>
            <stop offset="1" stop-color="#fff" stop-opacity=".01"/>
        </linearGradient>
        <linearGradient id="f" x1="130.606" x2="85.678" y1="220.387" y2="168.619" gradientUnits="userSpaceOnUse">
            <stop stop-color="#fff" stop-opacity="0"/>
            <stop offset="1" stop-color="#FFFCFF" stop-opacity=".74"/>
        </linearGradient>
    </defs>
</svg>
