<svg xmlns="http://www.w3.org/2000/svg" width="55" height="62" viewBox="0 0 55 62">
    <defs>
        <linearGradient id="a" x1="0%" x2="99.951%" y1="50.031%" y2="50.031%">
            <stop offset="0%" stop-color="#00BCE8"/>
            <stop offset="86%" stop-color="#4480BC"/>
        </linearGradient>
    </defs>
    <g fill="none" fill-rule="evenodd">
        <path fill="#232327" fill-rule="nonzero" d="M25 57h3v3h-3zM5 34v3H2v-3zM31.5.5v3h-8v-3z"/>
        <path stroke="#232327" stroke-width="3" d="M52.499 34.725C52.35 20.768 40.99 9.5 27 9.5 12.917 9.5 1.5 20.917 1.5 35S12.917 60.5 27 60.5c7.21 0 13.932-3.006 18.726-8.191L52.5 34.725z"/>
        <path fill="url(#a)" fill-rule="nonzero" d="M27 8v27.885L54.082 43a27.834 27.834 0 0 0-4.91-24.13A28.051 28.051 0 0 0 27 8z"/>
    </g>
</svg>
