<svg xmlns="http://www.w3.org/2000/svg" width="181" height="315" fill="none" viewBox="0 0 181 315">
    <path fill="url(#a)" d="M95.083 20.883c26.033 0 47.313 11.737 48.86 26.561h.094v84.623c0 15.555-21.871 28.21-48.853 28.21-26.98 0-48.852-12.631-48.852-28.21V51.691c-.131-.836-.199-1.681-.202-2.528 0-15.617 21.918-28.28 48.953-28.28z"/>
    <path fill="#B1BFD8" d="M10.889 49.381v51.217-51.217z"/>
    <path stroke="#B1BFD8" stroke-width=".5" d="M10.889 49.381v51.217"/>
    <path fill="url(#b)" d="M10.889 88.06l10.889 18.799c0 3.461-4.861 6.269-10.89 6.269C4.862 113.128 0 110.32 0 106.859L10.89 88.06z"/>
    <path fill="url(#c)" d="M95.083 77.428c-27.036 0-48.953-12.658-48.953-28.272 0-15.615 21.917-28.273 48.953-28.273s48.954 12.658 48.954 28.273c0 15.614-21.918 28.272-48.954 28.272z"/>
    <path fill="url(#d)" d="M9.575 49.381l85.508 49.381 85.509-49.38L95.083 0 9.575 49.381z"/>
    <path fill="url(#e)" d="M9.575 49.381l85.508 49.381 85.509-49.38L95.083 0 9.575 49.381z"/>
    <path fill="url(#f)" d="M95.083 98.75L180.25 49v159.45l-85.167 48.5V98.75z" opacity=".6"/>
    <path fill="url(#g)" fill-rule="evenodd" d="M.021 107.25H0V149l21.778 12.25v-54h-.021c-.35 3.279-5.069 5.878-10.868 5.878-5.8 0-10.518-2.599-10.868-5.878z" clip-rule="evenodd" opacity=".6"/>
    <defs>
        <linearGradient id="a" x1="144.044" x2="45.92" y1="160.432" y2="160.432" gradientUnits="userSpaceOnUse">
            <stop stop-color="#D7DAEB"/>
            <stop offset="1" stop-color="#919FC3"/>
        </linearGradient>
        <linearGradient id="b" x1="21.739" x2=".031" y1="113.091" y2="113.091" gradientUnits="userSpaceOnUse">
            <stop stop-color="#3FBCE7"/>
            <stop offset=".86" stop-color="#5B80BA"/>
        </linearGradient>
        <linearGradient id="c" x1="52.92" x2="144.892" y1="22.597" y2="22.597" gradientUnits="userSpaceOnUse">
            <stop stop-color="#B9C1E4" stop-opacity=".8"/>
            <stop offset="1" stop-color="#919FC3"/>
        </linearGradient>
        <linearGradient id="d" x1="-11.241" x2="18.158" y1="59.032" y2="-46.231" gradientUnits="userSpaceOnUse">
            <stop stop-color="#B9C1E4" stop-opacity=".6"/>
            <stop offset="1" stop-color="#919FC3"/>
        </linearGradient>
        <linearGradient id="e" x1="55.461" x2="54.95" y1="96.708" y2="49.19" gradientUnits="userSpaceOnUse">
            <stop stop-color="#fff" stop-opacity=".3"/>
            <stop offset="1" stop-color="#fff" stop-opacity=".01"/>
        </linearGradient>
        <linearGradient id="f" x1="133.713" x2="89.42" y1="198.717" y2="143.464" gradientUnits="userSpaceOnUse">
            <stop stop-color="#fff" stop-opacity="0"/>
            <stop offset="1" stop-color="#FFFCFF" stop-opacity=".74"/>
        </linearGradient>
        <linearGradient id="g" x1="11.9" x2="23.298" y1="159.87" y2="104.842" gradientUnits="userSpaceOnUse">
            <stop offset=".11" stop-color="#fff" stop-opacity="0"/>
            <stop offset="1" stop-color="#FFFCFF" stop-opacity=".74"/>
        </linearGradient>
    </defs>
</svg>
