<?xml version="1.0" encoding="utf-8"?>
<!-- Generator: Adobe Illustrator 22.1.0, SVG Export Plug-In . SVG Version: 6.00 Build 0)  -->
<svg version="1.1" id="Слой_1" xmlns="http://www.w3.org/2000/svg" xmlns:xlink="http://www.w3.org/1999/xlink" x="0px" y="0px"
	 viewBox="0 0 190 310" style="enable-background:new 0 0 190 310;" xml:space="preserve">
<style type="text/css">
	.st0{fill:url(#SVGID_1_);}
	.st1{fill:url(#SVGID_2_);}
	.st2{opacity:0.7;fill:url(#SVGID_3_);enable-background:new    ;}
	.st3{opacity:0.9;fill:url(#SVGID_4_);enable-background:new    ;}
	.st4{opacity:0.7;fill:url(#SVGID_5_);enable-background:new    ;}
	.st5{opacity:0.9;fill:url(#SVGID_6_);enable-background:new    ;}
	.st6{fill:url(#SVGID_7_);}
</style>
<linearGradient id="SVGID_1_" gradientUnits="userSpaceOnUse" x1="79.8745" y1="173.1306" x2="133.9155" y2="237.3086" gradientTransform="matrix(1 0 0 -1 0 312)">
	<stop  offset="0" style="stop-color:#8DB3B1"/>
	<stop  offset="1" style="stop-color:#749896"/>
</linearGradient>
<path class="st0" d="M14.3,113.1l87.3,37.6l87.3-37.6l-87.3-37.6L14.3,113.1z"/>
<linearGradient id="SVGID_2_" gradientUnits="userSpaceOnUse" x1="106.6985" y1="199.4339" x2="161.6985" y2="279.4339" gradientTransform="matrix(1 0 0 -1 0 312)">
	<stop  offset="0" style="stop-color:#BDD7D5"/>
	<stop  offset="1" style="stop-color:#8DB3B1"/>
</linearGradient>
<path class="st1" d="M101.6,75.5l87.3,37.6V37.6L101.6,0V75.5z"/>
<linearGradient id="SVGID_3_" gradientUnits="userSpaceOnUse" x1="129.2885" y1="233.3421" x2="134.9255" y2="276.1211" gradientTransform="matrix(1 0 0 -1 0 312)">
	<stop  offset="0" style="stop-color:#F5ECB0"/>
	<stop  offset="1" style="stop-color:#F0CB88"/>
</linearGradient>
<path class="st2" d="M74.2,10.7l87.3,37.6c0,0,2.2,17.6,7.5,32.1c5.3,14.4,19.9,32.7,19.9,32.7l-87.3-37.6c0,0-10.8-12.4-16.3-24.5
	C78.6,36.4,74.2,10.7,74.2,10.7z"/>
<linearGradient id="SVGID_4_" gradientUnits="userSpaceOnUse" x1="100.0408" y1="197.7512" x2="137.6888" y2="284.3812" gradientTransform="matrix(1 0 0 -1 0 312)">
	<stop  offset="0" style="stop-color:#F5ECB0"/>
	<stop  offset="1" style="stop-color:#F0CB88"/>
</linearGradient>
<path class="st3" d="M49.5,27.3l87.3,37.6c0,0,7,14.4,19,24.9c12.9,11.4,33.1,23.2,33.1,23.2l-87.3-37.6c0,0-19.1-9-31.2-20.7
	C57.8,42.6,49.5,27.3,49.5,27.3L49.5,27.3z"/>
<linearGradient id="SVGID_5_" gradientUnits="userSpaceOnUse" x1="-281.5348" y1="-10350.3789" x2="-223.8644" y2="-8757.2295" gradientTransform="matrix(1 0 0 -1 0 312)">
	<stop  offset="0" style="stop-color:#F5ECB0"/>
	<stop  offset="1" style="stop-color:#F0CB88"/>
</linearGradient>
<path class="st4" d="M12.6,90.2l87.3,37.5c0,0,20.8-9.2,40.2-13c19.3-3.8,48.7-1.8,48.7-1.8l-87.3-37.5c0,0-19.8-0.8-36.6,1.7
	C44.7,80.1,12.6,90.2,12.6,90.2z"/>
<linearGradient id="SVGID_6_" gradientUnits="userSpaceOnUse" x1="55.719" y1="203.0139" x2="151.468" y2="241.6109" gradientTransform="matrix(1 0 0 -1 0 312)">
	<stop  offset="0" style="stop-color:#F5ECB0"/>
	<stop  offset="0.517" style="stop-color:#F0CB88"/>
</linearGradient>
<path class="st5" d="M19.6,65.9l87.3,37.5c0,0,20.3-2.7,38.4-0.2c19.6,2.7,43.5,9.7,43.5,9.7l-87.3-37.5c0,0-20-7.9-39.6-9.8
	C41.5,63.6,19.6,65.9,19.6,65.9z"/>
<linearGradient id="SVGID_7_" gradientUnits="userSpaceOnUse" x1="103.5432" y1="214.3777" x2="105.2002" y2="234.7417" gradientTransform="matrix(1 0 0 -1 0 312)">
	<stop  offset="0" style="stop-color:#FFFFFF;stop-opacity:0.3"/>
	<stop  offset="1" style="stop-color:#FFFFFF;stop-opacity:1.000000e-02"/>
</linearGradient>
<path class="st6" d="M19.6,65.9l87.3,37.5c0,0,20.3-2.7,38.4-0.2c19.6,2.7,43.5,9.7,43.5,9.7l-87.3-37.5c0,0-20-7.9-39.6-9.8
	C41.5,63.6,19.6,65.9,19.6,65.9z"/>
</svg>
