<svg xmlns="http://www.w3.org/2000/svg" xmlns:xlink="http://www.w3.org/1999/xlink" width="61" height="61" viewBox="0 0 71 71">
    <defs>
        <path id="a" d="M0 0h12.952v16.762H0z"/>
    </defs>
    <g fill="none" fill-rule="evenodd" transform="translate(3 3)">
        <path stroke="#28282B" stroke-width="2" d="M46 27.757L50.243 32 46 36.243M28.757 46L33 50.243 37.243 46"/>
        <circle cx="32.5" cy="32.5" r="32.5" stroke="#28282B" stroke-width="2"/>
        <path stroke="#28282B" stroke-width="2" d="M28.757 18L33 13.757 37.243 18M19 27.757L14.757 32 19 36.243"/>
        <path fill="#FFF" d="M32.429 24c-.867 0-1.304.526-1.439 1.03a1.554 1.554 0 0 0-1.116-.545c-1.477 0-1.786 1.129-1.871 2.268-1.164.232-2.004 1.202-2.003 2.383.038.754.085 1.513.135 2.273.164 2.121.593 3.745 1.146 5.514.448 1.199.906 2.398 1.354 3.592a.381.381 0 0 0 .357.247h7.08a.386.386 0 0 0 .351-.233c2.65-6.268 2.529-5.495 2.529-12.185 0-1.664-1.222-2.476-2.428-1.881-.251-1.27-1.591-1.953-2.584-1.25-.179-.667-.72-1.201-1.511-1.213z"/>
        <g transform="translate(26 24)">
            <mask id="b" fill="#fff">
                <use xlink:href="#a"/>
            </mask>
            <path fill="#000" d="M6.427.762c.58 0 .906.366.919 1.512 0 .558-.024 1.123-.025 1.656 0 .194.169.387.382.387.229 0 .381-.207.381-.387 0-.468.024-1.141.025-1.624 0-.416.23-.615.74-.615 1.004.052.962 1.108.974 1.855a41.765 41.765 0 0 1-.072 1.933c0 .2.16.386.381.386.245 0 .382-.182.382-.386 0-.429.07-1.325.074-1.764.01-.458.337-.692.726-.62.413.083.874.456.874 1.249 0 6.616.181 5.637-2.37 11.656H3.257l-1.249-3.328C1.35 10.787.92 8.811.92 7.632L.76 5.234c0-.822.516-1.477 1.268-1.718l-.077 3.5c0 .19.166.39.373.394.191 0 .39-.209.39-.377.016-1.427.045-3.054.066-4.406 0-1.192.656-1.394 1.072-1.381.417.012.867.36.878 1.18.008.528.014 1.044.014 1.52a.383.383 0 0 0 .382.386c.234-.01.39-.152.381-.387l.003-1.722c0-1.088.318-1.464.918-1.462zM6.429 0C5.562 0 5.125.526 4.99 1.03A1.554 1.554 0 0 0 3.874.484c-1.477 0-1.786 1.128-1.871 2.268C.839 2.985-.001 3.955 0 5.136c.038.754.085 1.513.135 2.273.164 2.121.593 3.745 1.146 5.515.448 1.198.906 2.397 1.354 3.59a.384.384 0 0 0 .357.248h7.08a.384.384 0 0 0 .35-.233c2.65-6.268 2.53-5.494 2.53-12.185 0-1.664-1.221-2.476-2.428-1.881-.251-1.27-1.591-1.954-2.584-1.25C7.761.547 7.22.013 6.43 0z" mask="url(#b)"/>
        </g>
    </g>
</svg>
