<?xml version="1.0" encoding="UTF-8"?>
<svg width="62px" height="62px" viewBox="0 0 62 62" version="1.1" xmlns="http://www.w3.org/2000/svg" xmlns:xlink="http://www.w3.org/1999/xlink">
    <!-- Generator: Sketch 49.2 (51160) - http://www.bohemiancoding.com/sketch -->
    <title>palm-coursor-move</title>
    <desc>Created with Sketch.</desc>
    <defs></defs>
    <g id="Page-1" stroke="none" stroke-width="1" fill="none" fill-rule="evenodd">
        <g id="Ui-kit" transform="translate(-962.000000, -1341.000000)">
            <g id="plan-copy" transform="translate(850.000000, 1339.000000)">
                <g id="scheme">
                    <g id="palm-coursor-move" transform="translate(110.298828, 0.564453)">
                        <g id="hand-arrows-coursor-copy-2" transform="translate(2.746479, 2.746479)" stroke="#28282B">
                            <polyline id="Rectangle-5-Copy-12" stroke-width="2" transform="translate(44.859155, 29.295775) rotate(-45.000000) translate(-44.859155, -29.295775) " points="47.6056338 26.5492958 47.6056338 32.0422535 42.1126761 32.0422535"></polyline>
                            <polyline id="Rectangle-5-Copy-14" stroke-width="2" transform="translate(30.211268, 44.859155) scale(-1, 1) rotate(45.000000) translate(-30.211268, -44.859155) " points="32.9577465 42.1126761 32.9577465 47.6056338 27.4647887 47.6056338"></polyline>
                            <circle id="Oval-4" stroke-width="2" cx="29.7535211" cy="29.7535211" r="29.7535211"></circle>
                            <polyline id="Rectangle-5-Copy-15" stroke-width="2" transform="translate(30.211268, 13.732394) scale(-1, -1) rotate(45.000000) translate(-30.211268, -13.732394) " points="32.9577465 10.9859155 32.9577465 16.4788732 27.4647887 16.4788732"></polyline>
                            <polyline id="Rectangle-5-Copy-13" stroke-width="2" transform="translate(14.647887, 29.295775) scale(-1, 1) rotate(-45.000000) translate(-14.647887, -29.295775) " points="17.3943662 26.5492958 17.3943662 32.0422535 11.9014085 32.0422535"></polyline>
                        </g>
                        <g id="noun_Hand_73720" transform="translate(23.802817, 20.840928)">
                            <path d="M2.14203177,12.2242501 C1.81234398,12.2242501 1.5010518,12.3534973 1.26620898,12.588579 C1.03041053,12.8241385 0.899729933,13.1373419 0.898057604,13.4696577 C0.896624178,13.8019734 1.02467683,14.1135045 1.25880295,14.3478695 C1.2846046,14.3758213 2.51758917,15.7519095 4.28046326,17.5152614 L4.57407653,17.8095914 C6.21057029,19.4549246 7.50280311,20.7548024 10.1173707,20.7548024 C12.7312215,20.7548024 13.548035,19.546186 14.2781262,18.0857646 C14.8737144,16.8945883 14.9499248,15.850338 15.1169189,13.5623525 C15.1412871,13.2300368 15.1673276,12.8721583 15.1971907,12.4848946 C15.4260609,9.50934277 15.6549311,6.64344799 15.6738046,6.40741064 C15.6668763,6.01799679 15.3479392,5.70359887 14.957092,5.70359887 C14.5619444,5.70359887 14.2403794,6.02516392 14.2403794,6.42031147 C14.2403794,6.42811567 14.0805524,8.07225437 13.7608986,11.3527276 C13.7422641,11.5450455 13.5692975,11.6831321 13.3812799,11.6757261 C13.1882453,11.6635419 13.0398858,11.5003704 13.0460973,11.3070969 L13.2850015,3.54271038 C13.2847626,3.02667731 12.8561684,2.59808317 12.3291458,2.59808317 C11.7882666,2.59808317 11.3138029,3.04459512 11.3138029,3.55369997 L11.0146948,9.48473564 C11.0048998,9.675859 10.8381446,9.88466127 10.6439155,9.88466127 C10.4494475,9.88466127 10.2719417,9.60108198 10.2719417,9.40685287 L10.2719417,1.88137057 C10.2719417,1.336669 9.89996785,0.925753774 9.38919067,0.925753774 C8.87029075,0.925753774 8.47012622,1.34550845 8.47012622,1.88137057 L8.2641908,10.1923699 C8.25917381,10.3861212 8.07569538,10.6013739 7.90965696,10.6013739 C7.74361854,10.6013739 7.55727327,10.388988 7.55034505,10.1961923 L7.31191866,3.47701172 C7.31167975,2.83125367 6.91868234,2.37422994 6.35534624,2.37422994 C5.79201014,2.37422994 5.39901273,2.80879668 5.39901273,3.44189281 L5.63409446,14.4200186 C5.63720022,14.5679003 5.54952237,14.7004921 5.41286917,14.7568735 C5.27669378,14.8137327 5.11925591,14.7798083 5.01724382,14.673257 L3.01259868,12.5842787 C2.78277284,12.3539751 2.47195847,12.2242501 2.14203177,12.2242501 Z" id="Path" fill="#FFFFFF"></path>
                            <path d="M10.1183096,21.471515 C7.20582847,21.471515 5.7511408,20.0087045 4.06686619,18.3148738 L3.77468636,18.0219772 C1.9965224,16.2438133 0.751592613,14.8536297 0.739169594,14.8402511 C-0.00955616799,14.092242 -0.005972605,12.8482679 0.760432068,12.0821021 C1.13073358,11.7115617 1.62168171,11.5077764 2.14297067,11.5077764 C2.66449854,11.5077764 3.15544667,11.7118006 3.52574818,12.0821021 L4.89873062,13.5126604 L4.68323903,3.44189281 C4.68323903,2.41269351 5.40257957,1.64246637 6.35652404,1.64246637 C6.94972317,1.64246637 7.45237761,1.94037991 7.7474243,2.41149899 L7.76104183,1.87229221 C7.76104183,0.943671589 8.46915388,0.209041175 9.39012957,0.209041175 C10.294382,0.209041175 10.9895932,0.943671589 10.9895932,1.88137057 L10.9895932,2.4745697 C11.2284974,2.11525779 11.7978061,1.88137057 12.316706,1.88137057 C13.2386373,1.88137057 13.9957247,2.63176867 13.9957247,3.55369997 L13.9419713,5.40687985 C14.2014213,5.14766879 14.561211,4.98712517 14.9561196,4.98712517 C15.7466536,4.98712517 16.3902615,5.63001637 16.3902615,6.42055037 C16.3895448,6.44897997 16.1508795,9.43504356 15.9119753,12.5403204 C15.8823512,12.9266284 15.8567885,13.2830735 15.8324202,13.6144336 C15.6582591,15.9996532 15.5789429,17.0883396 14.9200451,18.406613 C14.144801,19.9573401 13.1351918,21.471515 10.1183096,21.471515 Z M2.14297067,12.2242501 C1.81328288,12.2242501 1.5019907,12.3534973 1.26714788,12.588579 C1.03134943,12.8241385 0.900668833,13.1373419 0.898996504,13.4696577 C0.897563079,13.8019734 1.02561573,14.1135045 1.25974185,14.3478695 C1.2855435,14.3758213 2.51852807,15.7519095 4.28140216,17.5152614 L4.57501543,17.8095914 C6.21150919,19.4549246 7.50374201,20.7548024 10.1183096,20.7548024 C12.7321604,20.7548024 13.5489739,19.546186 14.2790651,18.0857646 C14.8746533,16.8945883 14.9508637,15.850338 15.1178578,13.5623525 C15.142226,13.2300368 15.1682665,12.8721583 15.1981296,12.4848946 C15.4269998,9.50934277 15.65587,6.64344799 15.6747435,6.40741064 C15.6678152,6.01799679 15.3488781,5.70359887 14.9580309,5.70359887 C14.5628833,5.70359887 14.2413183,6.02516392 14.2413183,6.42031147 C14.2413183,6.42811567 14.0814913,8.07225437 13.7618375,11.3527276 C13.743203,11.5450455 13.5702364,11.6831321 13.3822188,11.6757261 C13.1891842,11.6635419 13.0408247,11.5003704 13.0470362,11.3070969 L13.2859404,3.54271038 C13.2857015,3.02667731 12.8571073,2.59808317 12.3300847,2.59808317 C11.7892055,2.59808317 11.3147418,3.04459512 11.3147418,3.55369997 L11.0156337,9.48473564 C11.0058387,9.675859 10.8390835,9.88466127 10.6448544,9.88466127 C10.4503864,9.88466127 10.2728806,9.60108198 10.2728806,9.40685287 L10.2728806,1.88137057 C10.2728806,1.336669 9.90090675,0.925753774 9.39012957,0.925753774 C8.87122965,0.925753774 8.47106512,1.34550845 8.47106512,1.88137057 L8.2651297,10.1923699 C8.26011271,10.3861212 8.07663428,10.6013739 7.91059586,10.6013739 C7.74455745,10.6013739 7.55821217,10.388988 7.55128395,10.1961923 L7.31285756,3.47701172 C7.31261865,2.83125367 6.91962124,2.37422994 6.35628514,2.37422994 C5.79294904,2.37422994 5.39995163,2.80879668 5.39995163,3.44189281 L5.63503336,14.4200186 C5.63813912,14.5679003 5.55046127,14.7004921 5.41380807,14.7568735 C5.27763268,14.8137327 5.12019481,14.7798083 5.01818272,14.673257 L3.01353758,12.5842787 C2.78371174,12.3539751 2.47289737,12.2242501 2.14297067,12.2242501 Z" id="Shape" fill="#000000" fill-rule="nonzero"></path>
                        </g>
                    </g>
                </g>
            </g>
        </g>
    </g>
</svg>