<svg xmlns="http://www.w3.org/2000/svg" width="161" height="47" viewBox="0 0 161 47">
    <defs>
        <linearGradient id="a" x1="23.065%" x2="67.782%" y1="77.319%" y2="15.37%">
            <stop offset="6%" stop-color="#D2C9C1"/>
            <stop offset="98%" stop-color="#A79486"/>
        </linearGradient>
        <linearGradient id="b" x1="12696.661%" x2="13817.601%" y1="14485%" y2="7417%">
            <stop offset="6%" stop-color="#D2C9C1"/>
            <stop offset="98%" stop-color="#A79486"/>
        </linearGradient>
        <linearGradient id="c" x1="864464%" x2="874413%" y1="-226978%" y2="-226978%">
            <stop offset="6%" stop-color="#D2C9C1"/>
            <stop offset="98%" stop-color="#A79486"/>
        </linearGradient>
        <linearGradient id="d" x1="863490%" x2="867137%" y1="-229767%" y2="-229767%">
            <stop offset="6%" stop-color="#D2C9C1"/>
            <stop offset="98%" stop-color="#A79486"/>
        </linearGradient>
        <linearGradient id="e" x1="865178%" x2="869793%" y1="-235581%" y2="-235581%">
            <stop offset="6%" stop-color="#D2C9C1"/>
            <stop offset="98%" stop-color="#A79486"/>
        </linearGradient>
        <linearGradient id="f" x1="24.988%" x2="74.989%" y1="93.286%" y2="6.724%">
            <stop offset="0%" stop-color="#666"/>
            <stop offset="100%" stop-color="#3F4044"/>
        </linearGradient>
        <linearGradient id="g" x1="856219%" x2="862528%" y1="-233045%" y2="-233045%">
            <stop offset="0%" stop-color="#666"/>
            <stop offset="100%" stop-color="#3F4044"/>
        </linearGradient>
        <linearGradient id="h" x1="10.422%" x2="89.53%" y1="72.769%" y2="27.235%">
            <stop offset="0%" stop-color="#3F4044"/>
            <stop offset="100%" stop-color="#28282B"/>
        </linearGradient>
        <linearGradient id="i" x1="5049.874%" x2="5003.854%" y1="19911%" y2="16315%">
            <stop offset="0%" stop-color="#666"/>
            <stop offset="100%" stop-color="#3F4044"/>
        </linearGradient>
        <linearGradient id="j" x1="0%" y1="49.996%" y2="49.996%">
            <stop offset="0%" stop-color="#3FBCE7"/>
            <stop offset="86%" stop-color="#5B80BA"/>
        </linearGradient>
        <linearGradient id="k" x1="6984%" x2="17899%" y1="7904%" y2="7904%">
            <stop offset="0%" stop-color="#3FBCE7"/>
            <stop offset="86%" stop-color="#5B80BA"/>
        </linearGradient>
        <linearGradient id="l" x1="24.984%" x2="74.995%" y1="93.301%" y2="6.697%">
            <stop offset="0%" stop-color="#FFF"/>
            <stop offset="100%" stop-color="#CED1D4"/>
        </linearGradient>
        <linearGradient id="m" x1="5308%" x2="7889%" y1="2196.67%" y2="2152.353%">
            <stop offset="0%" stop-color="#FFF"/>
            <stop offset="100%" stop-color="#CED1D4"/>
        </linearGradient>
        <linearGradient id="n" x1="-18.292%" x2="118.248%" y1="73.663%" y2="26.345%">
            <stop offset="0%" stop-color="#DEDEE1"/>
            <stop offset="100%" stop-color="#CED1D4"/>
        </linearGradient>
        <linearGradient id="o" x1="1707.612%" x2="1861.428%" y1="14517%" y2="10967%">
            <stop offset="0%" stop-color="#FFF"/>
            <stop offset="100%" stop-color="#CED1D4"/>
        </linearGradient>
        <linearGradient id="p" x1="0%" y1="50.013%" y2="50.013%">
            <stop offset="0%" stop-color="#FFF"/>
            <stop offset="100%" stop-color="#FFF" stop-opacity="0"/>
        </linearGradient>
        <linearGradient id="q" x1="9282%" x2="16693%" y1="7582%" y2="7582%">
            <stop offset="0%" stop-color="#FFF"/>
            <stop offset="100%" stop-color="#FFF" stop-opacity="0"/>
        </linearGradient>
    </defs>
    <g fill="none" fill-rule="evenodd">
        <path fill="#28282B" fill-rule="nonzero" d="M20.524 1.973v16.568L1.142 29.726V13.161L20.524 1.973zM21.662 0L0 12.503v19.196l21.662-12.503V0z"/>
        <g stroke="#A2A2A3" stroke-linecap="round" stroke-linejoin="round" stroke-width=".25" opacity=".5">
            <path d="M48.346 28.804l-25.18 14.54L3.022 31.713l25.18-14.541zM28.201 40.437L8.058 28.804M33.238 37.528L13.093 25.894M38.274 34.62L18.13 22.987M43.31 31.712L23.165 20.079M8.058 34.62l25.18-14.541M18.13 40.437l25.18-14.543M13.093 37.528l25.18-14.541"/>
        </g>
        <path fill="url(#a)" fill-rule="nonzero" d="M28.201 22.987l10.073 5.817-5.036 2.908 5.036 2.908 5.037-2.908 5.035-2.908-15.108-8.725z"/>
        <path fill="url(#b)" fill-rule="nonzero" d="M28.201 17.17l10.073 5.817-5.036 2.907 5.036 2.91 5.037-2.91 5.035-2.907-15.108-8.726z"/>
        <path fill="url(#c)" fill-rule="nonzero" d="M48.346 28.804l-10.072 5.828v-5.84l10.072-5.829z"/>
        <path fill="url(#d)" fill-rule="nonzero" d="M38.274 34.632l-5.036-2.91v-5.838l5.036 2.907z"/>
        <path fill="url(#e)" fill-rule="nonzero" d="M33.238 25.907l-5.037-2.908v-5.84l10.073 5.828z"/>
        <path fill="url(#f)" fill-rule="nonzero" d="M28.203 34.632l-5.036 2.908-5.035-2.908 5.035-2.91z"/>
        <path fill="url(#g)" fill-rule="nonzero" d="M28.203 34.632l-5.036 2.908V31.7l5.036-2.909z"/>
        <path fill="url(#h)" fill-rule="nonzero" d="M23.167 37.54l-5.035-2.908v-5.84l5.035 2.907z"/>
        <path fill="url(#i)" fill-rule="nonzero" d="M28.203 28.791L23.167 31.7l-5.035-2.908 5.035-2.907z"/>
        <path fill="#28282B" fill-rule="nonzero" d="M0 33.563l23.166 13.379 28.201-16.287v-1.851L23.166 45.089 0 31.712z"/>
        <path fill="url(#j)" fill-rule="nonzero" d="M26.174.83l.002 10.832L9.312 21.49l-.001-10.834L26.174.83" opacity=".4"/>
        <path fill="url(#k)" fill-rule="nonzero" d="M27.654 1.882l.002 10.834-16.863 9.826-.002-10.833 16.863-9.827" opacity=".7"/>
        <path fill="url(#l)" fill-rule="nonzero" d="M13.093 31.712L8.058 34.62l-5.036-2.908 5.036-2.908z"/>
        <path fill="url(#m)" fill-rule="nonzero" d="M13.093 31.712L8.058 34.62V22.999l5.035-2.91z"/>
        <path fill="url(#n)" fill-rule="nonzero" d="M8.058 34.62l-5.036-2.908V20.089L8.058 23z"/>
        <path fill="url(#o)" fill-rule="nonzero" d="M13.093 20.09l-5.035 2.909-5.036-2.91 5.036-2.907z"/>
        <path fill="url(#p)" fill-rule="nonzero" d="M26.6 13.33l1.056-.615-9.342-5.4-1.055.614z" opacity=".3"/>
        <path fill="url(#q)" fill-rule="nonzero" d="M23.683 15.03l2.111-1.23-9.343-5.4-2.11 1.23z" opacity=".3"/>
        <g fill="#28282B" fill-rule="nonzero">
            <path d="M66.872 9.578v6.079l3.858-6.079h1.601v8.65h-1.6v-6.079l-3.859 6.079h-1.6v-8.65zM73.678 9.58h2.42c2.77 0 3.09 1.882 3.09 2.7 0 1.082-.584 2.678-3.09 2.678h-.819v3.274h-1.6V9.58zm1.603 3.822h.947c.42 0 1.367-.07 1.367-1.134 0-1.064-.947-1.134-1.367-1.134h-.947v2.268zM81.028 11.132h-1.6V9.578h4.514l.724 1.554H82.63v7.096h-1.603zM88.684 18.228h-1.753l1.016-2.198-3.32-6.452h1.94l2.28 4.606 1.999-4.606H92.6zM94.038 9.58h1.286l2.08 5.454-.887 2.271L96.053 16h-3.192l-.96 2.232h-1.766l3.903-8.652zm1.45 4.86l-.894-2.524-1.07 2.525h1.964zM105.141 18.228h-1.764l-2.363-6.43-2.391 6.43h-1.765l3.455-8.65h1.403zM107.321 9.58v3.33h1.286c2.14 0 2.865 1.367 2.865 2.665 0 1.577-1.18 2.653-2.865 2.653h-2.888V9.58h1.602zm0 7.095h1.3c.737 0 1.251-.41 1.251-1.099 0-.689-.514-1.11-1.251-1.11h-1.298l-.002 2.209zM112.124 9.578h1.6v3.472h3.157V9.578h1.602v8.65h-1.602v-3.624h-3.157v3.624h-1.6zM66.872 21.902v3.331h1.286c2.14 0 2.864 1.368 2.864 2.665 0 1.578-1.18 2.653-2.864 2.653H65.27V21.9l1.601.003zm0 7.095h1.298c.737 0 1.252-.41 1.252-1.099 0-.689-.515-1.11-1.252-1.11h-1.298v2.209zm5.026-7.095h1.603v8.652h-1.603v-8.652zM84.378 23.456H82.56v-1.554h5.96l-.722 1.554h-1.82v7.097h-1.6zM80.928 28.465a2.971 2.971 0 1 1 0-4.423l.773-1.346a4.504 4.504 0 1 0 0 7.117l-.773-1.348zM122.975 9.58h1.285l3.3 8.652h-1.765L124.984 16h-3.179l-.967 2.232h-1.764l3.901-8.652zm1.455 4.862l-.893-2.525-1.07 2.525h1.963zM90.764 21.902h1.286l3.298 8.652h-1.764l-.811-2.232h-3.18l-.966 2.232h-1.766l3.903-8.652zm1.456 4.862l-.893-2.524-1.071 2.524h1.964zM113.507 21.902h1.285l3.299 8.652h-1.766l-.811-2.232h-3.185l-.966 2.232h-1.76l3.904-8.652zm1.449 4.864l-.893-2.525-1.071 2.525h1.964zM102.573 21.9h1.602v8.651h-1.602zM107.442 21.9h1.916l-3.26 4.256 3.26 4.394h-1.916l-3.05-4.394zM63.195 13.515A2.492 2.492 0 0 0 61.17 9.58h-2.284v8.652h3.1a2.514 2.514 0 0 0 1.208-4.717zm-2.024-2.579a1.134 1.134 0 0 1 .066 2.267h-.894v-2.267h.828zm.814 5.924h-1.64v-2.29h1.642a1.145 1.145 0 0 1 0 2.289l-.002.001zM63.195 25.84a2.492 2.492 0 0 0-2.03-3.938h-2.278v8.652h3.1a2.514 2.514 0 0 0 1.216-4.712l-.008-.002zm-2.023-2.578a1.134 1.134 0 0 1 .067 2.266h-.895V23.26l.828.002zm.815 5.923h-1.643v-2.29h1.643a1.145 1.145 0 0 1 0 2.289v.001zM100.413 25.84a2.492 2.492 0 0 0-2.03-3.938h-2.277v8.652h3.09a2.514 2.514 0 0 0 1.216-4.712l.001-.002zm-2.031-2.578a1.134 1.134 0 0 1 .066 2.266h-.895V23.26l.829.002zm.814 5.922h-1.64v-2.288h1.64a1.145 1.145 0 0 1 0 2.288zM132.297 9.58h-1.068c-2.911 0-3.245 1.976-3.245 2.829 0 1.307.748 2.202 1.814 2.523l-1.801 3.3h1.602l2.452-4.502.03-.022h-.902c-1.274 0-1.6-.655-1.6-1.285 0-.63.327-1.286 1.6-1.286h1.082v7.095h1.6V9.58h-1.564zM60.863 39.922h-.59l.666-1.478-2.185-4.194h.644l1.848 3.58 1.595-3.58h.59zM67.639 39.922h-.568v-2.276h-1.34c-.422 0-.99-.046-1.391-.367-.476-.383-.506-.896-.506-1.341V34.25h.568v1.686c0 .269.023.683.336.943.285.238.79.253.99.253h1.34V34.25h.567l.004 5.672zM68.552 34.25h3.112v.513h-2.545v2.048h2.461v.513H69.12v2.085h2.545v.513h-3.112zM75.622 34.25v.515h-2.514v1.832h1.303c1.74 0 1.801 1.38 1.801 1.664 0 .99-.735 1.665-1.801 1.665h-1.87V34.25h3.081zm-2.514 5.16h1.31c.99 0 1.227-.713 1.227-1.15 0-.437-.238-1.15-1.227-1.15h-1.31v2.3zM76.846 34.25h.567v2.499h2.966V34.25h.568v5.672h-.568v-2.66h-2.966v2.66h-.567zM87.668 37.056c0 1.7-1.318 2.967-3.005 2.967-1.688 0-3.006-1.22-3.006-2.92 0-1.702 1.315-2.956 3.006-2.956 1.69 0 3.005 1.219 3.005 2.905m-.567 0c0-1.411-1.066-2.392-2.43-2.392a2.38 2.38 0 0 0-2.447 2.438c0 1.426 1.082 2.407 2.446 2.407a2.38 2.38 0 0 0 2.43-2.453M88.386 34.25h2.907v.513h-2.338v5.16h-.569zM97.166 37.056c0 1.7-1.318 2.967-3.006 2.967-1.687 0-2.999-1.22-2.999-2.922 0-1.703 1.318-2.951 3.005-2.951 1.688 0 3.006 1.219 3.006 2.905m-.567 0c0-1.411-1.066-2.392-2.43-2.392a2.38 2.38 0 0 0-2.447 2.438c0 1.426 1.082 2.407 2.446 2.407a2.38 2.38 0 0 0 2.43-2.453M105.613 37.056c0 1.7-1.318 2.967-3.006 2.967-1.687 0-3.005-1.22-3.005-2.92 0-1.702 1.318-2.952 3.005-2.952 1.688 0 3.006 1.22 3.006 2.905m-.567 0c0-1.41-1.067-2.392-2.43-2.392a2.38 2.38 0 0 0-2.447 2.439c0 1.426 1.082 2.407 2.446 2.407a2.38 2.38 0 0 0 2.43-2.454M109.414 34.25v.515H106.9v1.832h1.302c1.74 0 1.802 1.38 1.802 1.664 0 .99-.736 1.665-1.802 1.665h-1.87V34.25h3.082zm-2.514 5.16h1.31c.989 0 1.227-.713 1.227-1.15 0-.437-.238-1.15-1.227-1.15h-1.31v2.3zM116.41 37.056c0 1.7-1.318 2.967-3.005 2.967-1.688 0-3.006-1.22-3.006-2.92 0-1.702 1.312-2.956 3.012-2.956s3.005 1.219 3.005 2.905m-.567 0c0-1.411-1.066-2.392-2.43-2.392a2.38 2.38 0 0 0-2.446 2.438c0 1.426 1.081 2.407 2.445 2.407a2.38 2.38 0 0 0 2.43-2.453M117.128 34.25h1.794c1.664 0 1.955 1.059 1.955 1.7 0 .844-.521 1.7-1.955 1.7h-1.227v2.276h-.567V34.25zm.567 2.882h1.236c1.012 0 1.38-.59 1.38-1.18s-.368-1.189-1.38-1.189h-1.236v2.369zM123.01 39.922h-.59l.666-1.478-2.185-4.194h.645l1.848 3.58 1.594-3.58h.59zM130.04 39.41h.512v1.586h-.567v-1.074h-4.737v1.074h-.567V39.41h.513l2.123-5.159h.618l2.104 5.16zm-.619 0l-1.81-4.432-1.809 4.431h3.62zM136.417 37.056c0 1.7-1.318 2.967-3.005 2.967-1.687 0-3.005-1.22-3.005-2.922 0-1.703 1.318-2.951 3.005-2.951 1.687 0 3.005 1.219 3.005 2.905m-.567 0c0-1.411-1.066-2.392-2.43-2.392a2.38 2.38 0 0 0-2.446 2.438c0 1.426 1.082 2.407 2.446 2.407a2.38 2.38 0 0 0 2.43-2.453M137.136 34.25h1.418c.59 0 1.878.07 1.878 1.494-.004.475-.266.91-.683 1.135.704.207.988.85.988 1.441 0 .445-.191 1.602-2.047 1.602h-1.554V34.25zm1.418 2.43c.476 0 1.31-.084 1.31-.957 0-.935-.896-.958-1.31-.958h-.851v1.916h.851zm.138 2.73c.528 0 1.472-.093 1.472-1.082 0-1.035-.911-1.134-1.472-1.134h-.99v2.215h.99zM143.276 34.25h.629l2.43 5.672h-.618l-.82-1.9h-2.633l-.82 1.9h-.618l2.45-5.672zm1.403 3.259l-1.082-2.599-1.103 2.599h2.185zM146.848 34.25h.567v2.499h2.967V34.25h.567v5.672h-.567v-2.66h-2.967v2.66h-.567zM152.507 34.25v4.867l3.373-4.867h.597v5.672h-.567v-4.867l-3.373 4.867h-.597V34.25zM160.954 39.922h-.572v-5.157h-1.02c-1.341 0-1.687.683-1.687 1.288 0 1.288 1.364 1.303 1.687 1.303h.453l-1.854 2.568h-.705l1.545-2.115c-1.043-.054-1.7-.805-1.7-1.7 0-1.84 1.887-1.854 2.255-1.854h1.587l.01 5.667z"/>
        </g>
    </g>
</svg>
